<svg xmlns="http://www.w3.org/2000/svg" xmlns:xlink="http://www.w3.org/1999/xlink" width="500" zoomAndPan="magnify" viewBox="0 0 375 374.999991" height="500" preserveAspectRatio="xMidYMid meet" version="1.0"><defs><clipPath id="d7b92f94c9"><path d="M 11.621094 29.273438 L 363.371094 29.273438 L 363.371094 337.523438 L 11.621094 337.523438 Z M 11.621094 29.273438 " clip-rule="nonzero"/></clipPath></defs><path stroke-linecap="butt" transform="matrix(0.75, 0, 0, 0.75, 127.499996, 301.591387)" fill="none" stroke-linejoin="miter" d="M 0.00000516333 1.997943 L 160.000016 1.997943 " stroke="#000000" stroke-width="4" stroke-opacity="1" stroke-miterlimit="4"/><g clip-path="url(#d7b92f94c9)"><path fill="#000000" d="M 363.421875 194.144531 C 363.421875 155.351562 332.292969 103.644531 312.683594 80.128906 C 296.539062 60.804688 276.878906 49.1875 253.269531 40.324219 L 253.269531 40.273438 L 248.933594 38.730469 C 248.742188 38.683594 248.5 38.585938 248.308594 38.492188 C 247.101562 38.058594 245.898438 37.625 244.644531 37.238281 C 244.019531 37.046875 243.34375 36.804688 242.71875 36.613281 C 241.5625 36.226562 240.40625 35.839844 239.25 35.457031 C 238.1875 35.117188 237.128906 34.78125 236.066406 34.441406 C 235.25 34.203125 234.429688 33.914062 233.5625 33.671875 C 232.984375 33.480469 232.359375 33.335938 231.730469 33.140625 L 231.730469 33.09375 L 227.585938 31.9375 C 227.539062 31.9375 227.441406 31.890625 227.394531 31.890625 L 220.984375 30.058594 L 220.984375 30.105469 C 220.839844 30.058594 220.695312 30.007812 220.601562 30.007812 L 218.867188 29.527344 L 217.179688 30.152344 C 210.867188 32.515625 193.519531 33.960938 187.546875 33.960938 C 181.617188 33.960938 164.222656 32.515625 157.910156 30.152344 L 156.226562 29.527344 L 154.492188 30.007812 C 154.347656 30.058594 154.203125 30.105469 154.105469 30.105469 L 154.105469 30.058594 L 147.695312 31.890625 C 147.648438 31.890625 147.550781 31.9375 147.503906 31.9375 L 143.359375 33.09375 L 143.359375 33.140625 C 142.734375 33.335938 142.105469 33.480469 141.527344 33.671875 C 140.660156 33.914062 139.84375 34.203125 139.023438 34.441406 C 137.964844 34.78125 136.902344 35.117188 135.84375 35.457031 C 134.636719 35.839844 133.480469 36.226562 132.324219 36.613281 C 131.699219 36.804688 131.023438 37.046875 130.398438 37.238281 C 129.144531 37.671875 127.941406 38.105469 126.6875 38.492188 C 126.496094 38.539062 126.253906 38.636719 126.0625 38.683594 L 121.726562 40.226562 L 121.726562 40.273438 C 98.113281 49.140625 78.453125 60.753906 62.3125 80.078125 C 42.703125 103.597656 11.574219 155.304688 11.574219 194.097656 C 11.574219 223.398438 13.5 242.867188 15.765625 265.371094 C 16.488281 272.601562 17.261719 280.167969 17.984375 288.503906 L 17.984375 288.597656 L 16.828125 315.585938 L 66.554688 315.585938 L 66.554688 289.273438 C 72.769531 277.179688 76.574219 265.128906 79.226562 252.890625 C 80.480469 268.839844 82.261719 285.082031 83.996094 299.007812 L 84.765625 304.886719 C 84.765625 304.984375 84.816406 305.082031 84.816406 305.226562 L 85.441406 310.042969 C 87.226562 323.828125 88.671875 332.984375 88.671875 332.984375 L 89.394531 337.65625 L 285.699219 337.65625 L 286.421875 332.984375 C 286.421875 332.984375 287.820312 323.828125 289.648438 310.042969 L 290.277344 305.226562 C 290.277344 305.128906 290.324219 305.03125 290.324219 304.886719 L 291.09375 299.007812 C 292.828125 285.082031 294.613281 268.792969 295.867188 252.890625 C 298.515625 265.128906 302.320312 277.179688 308.539062 289.273438 L 308.539062 315.585938 L 358.265625 315.585938 L 357.109375 288.597656 L 357.109375 288.503906 C 357.109375 288.453125 357.109375 288.40625 357.109375 288.308594 L 357.6875 282.480469 L 357.589844 282.480469 C 358.167969 276.457031 358.699219 270.816406 359.277344 265.324219 C 361.492188 242.914062 363.421875 223.445312 363.421875 194.144531 Z M 276.207031 326.71875 L 98.789062 326.71875 C 98.257812 323.007812 97.441406 317.222656 96.476562 310.09375 L 278.519531 310.09375 C 277.554688 317.222656 276.734375 323.007812 276.207031 326.71875 Z M 55.566406 304.648438 L 28.292969 304.648438 L 28.777344 293.5625 L 55.566406 293.5625 Z M 88.527344 195.0625 C 88.960938 192.699219 89.441406 190.386719 89.921875 188.21875 C 92.378906 176.992188 95.800781 166.050781 100.089844 155.449219 L 105.003906 299.152344 L 95.03125 299.152344 C 91.898438 274.046875 88.476562 240.84375 88.476562 216.265625 L 88.476562 195.0625 Z M 269.988281 299.105469 L 274.90625 155.402344 C 279.242188 166.003906 282.664062 176.941406 285.070312 188.171875 C 285.554688 190.339844 285.988281 192.652344 286.46875 195.011719 L 286.46875 216.21875 C 286.46875 240.792969 283.046875 273.996094 279.917969 299.105469 Z M 346.699219 304.648438 L 319.429688 304.648438 L 319.429688 293.5625 L 346.21875 293.5625 Z M 346.554688 282.527344 L 317.355469 282.527344 C 307.382812 262.335938 304.492188 241.515625 301.40625 219.542969 C 300.78125 214.917969 300.058594 210.144531 299.335938 205.328125 C 299.046875 203.542969 298.804688 201.808594 298.515625 200.027344 C 297.984375 196.699219 297.457031 193.664062 296.878906 190.773438 C 302.273438 189.519531 307.1875 186.773438 311.09375 182.773438 L 314.851562 178.820312 L 306.949219 171.207031 L 303.140625 175.160156 C 300.828125 177.570312 297.746094 179.253906 294.46875 180.027344 C 293.40625 175.785156 292.25 171.59375 290.949219 167.449219 C 296.492188 163.835938 301.308594 158.96875 304.875 153.425781 L 307.863281 148.800781 L 298.613281 142.824219 L 295.625 147.449219 C 293.359375 150.917969 290.46875 154.003906 287.191406 156.558594 C 283.335938 146.390625 278.761719 136.460938 273.363281 126.96875 L 270.664062 122.199219 L 261.074219 127.644531 L 263.773438 132.414062 C 264.0625 132.945312 264.351562 133.472656 264.640625 134.003906 L 258.957031 299.152344 L 116.039062 299.152344 L 110.351562 134.003906 C 110.644531 133.472656 110.933594 132.945312 111.222656 132.414062 L 113.917969 127.644531 L 104.332031 122.199219 L 101.632812 126.96875 C 96.234375 136.460938 91.65625 146.339844 87.804688 156.558594 C 84.527344 154.003906 81.636719 150.917969 79.371094 147.449219 L 76.382812 142.824219 L 67.132812 148.800781 L 70.117188 153.425781 C 73.683594 158.96875 78.503906 163.835938 84.042969 167.449219 C 82.742188 171.59375 81.539062 175.785156 80.527344 180.027344 C 77.25 179.253906 74.214844 177.570312 71.855469 175.160156 L 68.046875 171.207031 L 60.144531 178.820312 L 63.953125 182.773438 C 67.804688 186.773438 72.769531 189.519531 78.117188 190.773438 C 77.539062 193.664062 77.007812 196.699219 76.480469 200.027344 C 76.191406 201.808594 75.949219 203.542969 75.660156 205.328125 C 74.9375 210.144531 74.214844 214.917969 73.589844 219.542969 C 70.503906 241.515625 67.613281 262.335938 57.640625 282.527344 L 28.4375 282.527344 C 27.859375 276.070312 27.234375 270.09375 26.65625 264.261719 C 24.441406 242.046875 22.511719 222.867188 22.511719 194.097656 C 22.511719 160.125 50.699219 111.113281 70.699219 87.164062 C 77.203125 79.355469 84.429688 72.949219 92.378906 67.453125 C 98.691406 75.550781 102.742188 85.476562 103.753906 95.742188 L 104.28125 101.234375 L 115.21875 100.125 L 114.691406 94.632812 C 113.484375 82.730469 108.90625 71.164062 101.726562 61.574219 C 108.617188 57.671875 115.992188 54.296875 123.84375 51.261719 C 131.601562 79.550781 157.816406 100.175781 187.402344 100.175781 C 216.988281 100.175781 243.246094 79.550781 250.957031 51.261719 C 258.8125 54.296875 266.183594 57.671875 273.074219 61.574219 C 265.894531 71.117188 261.316406 82.730469 260.113281 94.632812 L 259.582031 100.125 L 270.519531 101.234375 L 271.050781 95.742188 C 272.109375 85.523438 276.109375 75.550781 282.421875 67.453125 C 290.371094 72.949219 297.601562 79.355469 304.105469 87.164062 C 324.101562 111.113281 352.289062 160.125 352.289062 194.097656 C 352.289062 222.867188 350.363281 242.046875 348.144531 264.261719 C 347.710938 270.09375 347.132812 276.117188 346.554688 282.527344 Z M 134.300781 47.550781 C 135.121094 47.261719 135.988281 47.019531 136.808594 46.730469 C 137.625 46.441406 138.445312 46.203125 139.3125 45.914062 C 141.09375 45.335938 142.878906 44.804688 144.757812 44.226562 C 144.855469 44.5625 144.949219 44.851562 145.046875 45.191406 C 145.191406 45.671875 145.335938 46.203125 145.480469 46.683594 C 145.722656 47.453125 145.960938 48.226562 146.25 48.949219 C 146.445312 49.429688 146.589844 49.914062 146.828125 50.394531 C 147.117188 51.117188 147.457031 51.886719 147.792969 52.609375 C 147.984375 53.042969 148.226562 53.527344 148.46875 53.960938 C 148.851562 54.683594 149.238281 55.40625 149.671875 56.128906 C 149.914062 56.515625 150.152344 56.949219 150.394531 57.332031 C 150.878906 58.105469 151.40625 58.875 151.9375 59.597656 C 152.128906 59.886719 152.324219 60.226562 152.5625 60.515625 C 153.335938 61.527344 154.152344 62.539062 155.019531 63.5 C 155.070312 63.550781 155.117188 63.597656 155.164062 63.648438 C 155.984375 64.515625 156.804688 65.382812 157.71875 66.199219 C 158.007812 66.488281 158.34375 66.777344 158.683594 67.019531 C 159.308594 67.597656 159.984375 68.128906 160.609375 68.660156 C 160.996094 68.949219 161.429688 69.238281 161.816406 69.574219 C 162.441406 70.054688 163.066406 70.488281 163.742188 70.921875 C 164.175781 71.210938 164.65625 71.5 165.089844 71.742188 C 165.71875 72.128906 166.390625 72.511719 167.066406 72.851562 C 167.550781 73.09375 168.03125 73.332031 168.511719 73.574219 C 169.1875 73.910156 169.863281 74.199219 170.535156 74.488281 C 171.019531 74.683594 171.546875 74.921875 172.078125 75.117188 C 172.800781 75.40625 173.523438 75.644531 174.246094 75.886719 C 174.777344 76.03125 175.257812 76.222656 175.789062 76.367188 C 176.558594 76.5625 177.332031 76.753906 178.101562 76.945312 C 178.582031 77.042969 179.113281 77.1875 179.59375 77.285156 C 180.460938 77.429688 181.328125 77.574219 182.195312 77.671875 C 182.632812 77.71875 183.066406 77.816406 183.5 77.863281 C 184.800781 78.007812 186.148438 78.054688 187.496094 78.054688 C 188.847656 78.054688 190.195312 78.007812 191.496094 77.863281 C 191.929688 77.816406 192.363281 77.765625 192.796875 77.671875 C 193.664062 77.574219 194.53125 77.429688 195.398438 77.285156 C 195.929688 77.1875 196.410156 77.042969 196.894531 76.945312 C 197.664062 76.753906 198.4375 76.609375 199.207031 76.367188 C 199.738281 76.222656 200.21875 76.03125 200.75 75.886719 C 201.472656 75.644531 202.195312 75.40625 202.917969 75.117188 C 203.445312 74.921875 203.929688 74.730469 204.457031 74.488281 C 205.132812 74.199219 205.808594 73.863281 206.484375 73.574219 C 206.964844 73.332031 207.445312 73.09375 207.929688 72.851562 C 208.601562 72.511719 209.230469 72.128906 209.902344 71.742188 C 210.386719 71.453125 210.820312 71.210938 211.253906 70.921875 C 211.878906 70.488281 212.554688 70.054688 213.179688 69.574219 C 213.566406 69.285156 214 68.996094 214.382812 68.660156 C 215.058594 68.128906 215.6875 67.597656 216.3125 67.019531 C 216.648438 66.730469 216.988281 66.488281 217.277344 66.199219 C 218.144531 65.382812 219.011719 64.515625 219.828125 63.648438 C 219.878906 63.597656 219.925781 63.550781 219.972656 63.5 C 220.839844 62.539062 221.660156 61.574219 222.429688 60.515625 C 222.671875 60.226562 222.867188 59.9375 223.058594 59.597656 C 223.589844 58.875 224.117188 58.105469 224.601562 57.332031 C 224.839844 56.949219 225.082031 56.515625 225.324219 56.128906 C 225.757812 55.40625 226.140625 54.683594 226.527344 53.960938 C 226.769531 53.527344 226.960938 53.042969 227.203125 52.609375 C 227.539062 51.886719 227.875 51.164062 228.164062 50.394531 C 228.359375 49.914062 228.550781 49.429688 228.695312 48.949219 C 228.984375 48.175781 229.226562 47.453125 229.464844 46.683594 C 229.609375 46.203125 229.753906 45.671875 229.898438 45.191406 C 229.996094 44.851562 230.09375 44.5625 230.1875 44.226562 C 232.070312 44.804688 233.851562 45.335938 235.632812 45.914062 C 236.5 46.203125 237.320312 46.441406 238.140625 46.730469 C 238.960938 47.019531 239.828125 47.261719 240.644531 47.550781 C 234.574219 71.597656 212.457031 89.1875 187.496094 89.1875 C 162.539062 89.1875 140.421875 71.597656 134.300781 47.550781 Z M 219.636719 41.191406 C 219.589844 41.480469 219.492188 41.816406 219.445312 42.105469 C 219.347656 42.539062 219.203125 43.019531 219.058594 43.453125 C 218.914062 43.984375 218.722656 44.464844 218.527344 44.996094 C 218.382812 45.429688 218.238281 45.816406 218.09375 46.25 C 217.855469 46.78125 217.613281 47.308594 217.371094 47.839844 C 217.226562 48.175781 217.035156 48.5625 216.890625 48.898438 C 216.601562 49.527344 216.265625 50.105469 215.878906 50.683594 C 215.734375 50.925781 215.589844 51.214844 215.445312 51.453125 C 214.914062 52.273438 214.382812 53.09375 213.804688 53.863281 C 213.710938 53.960938 213.660156 54.058594 213.566406 54.152344 C 213.035156 54.828125 212.503906 55.453125 211.976562 56.082031 C 211.78125 56.320312 211.542969 56.515625 211.347656 56.753906 C 210.914062 57.238281 210.433594 57.71875 209.953125 58.152344 C 209.664062 58.394531 209.421875 58.632812 209.132812 58.875 C 208.699219 59.261719 208.21875 59.648438 207.734375 60.03125 C 207.445312 60.273438 207.109375 60.515625 206.820312 60.707031 C 206.335938 61.042969 205.855469 61.382812 205.375 61.71875 C 205.035156 61.960938 204.699219 62.152344 204.363281 62.34375 C 203.878906 62.632812 203.398438 62.921875 202.867188 63.210938 C 202.53125 63.40625 202.144531 63.597656 201.808594 63.742188 C 201.277344 63.984375 200.796875 64.226562 200.265625 64.464844 C 199.882812 64.609375 199.542969 64.804688 199.160156 64.949219 C 198.628906 65.140625 198.050781 65.332031 197.519531 65.527344 C 197.132812 65.671875 196.75 65.765625 196.363281 65.863281 C 195.785156 66.007812 195.207031 66.152344 194.582031 66.296875 C 194.195312 66.394531 193.859375 66.488281 193.472656 66.539062 C 192.796875 66.683594 192.171875 66.730469 191.496094 66.828125 C 191.160156 66.875 190.871094 66.921875 190.53125 66.972656 C 189.519531 67.066406 188.507812 67.117188 187.496094 67.117188 C 186.484375 67.117188 185.472656 67.066406 184.460938 66.972656 C 184.125 66.921875 183.835938 66.875 183.5 66.828125 C 182.824219 66.730469 182.148438 66.683594 181.523438 66.539062 C 181.136719 66.488281 180.800781 66.394531 180.414062 66.296875 C 179.835938 66.152344 179.210938 66.007812 178.632812 65.863281 C 178.246094 65.765625 177.859375 65.621094 177.476562 65.527344 C 176.945312 65.332031 176.367188 65.140625 175.835938 64.949219 C 175.453125 64.804688 175.066406 64.660156 174.726562 64.464844 C 174.199219 64.226562 173.667969 63.984375 173.1875 63.742188 C 172.847656 63.550781 172.464844 63.355469 172.125 63.210938 C 171.644531 62.921875 171.113281 62.632812 170.632812 62.34375 C 170.296875 62.152344 169.957031 61.910156 169.621094 61.71875 C 169.140625 61.382812 168.65625 61.042969 168.175781 60.707031 C 167.886719 60.464844 167.550781 60.273438 167.261719 60.03125 C 166.777344 59.648438 166.34375 59.261719 165.863281 58.875 C 165.574219 58.632812 165.332031 58.394531 165.042969 58.152344 C 164.5625 57.71875 164.128906 57.238281 163.644531 56.753906 C 163.453125 56.515625 163.210938 56.320312 163.019531 56.082031 C 162.441406 55.453125 161.910156 54.828125 161.429688 54.152344 C 161.332031 54.054688 161.285156 53.960938 161.1875 53.863281 C 160.609375 53.09375 160.082031 52.273438 159.550781 51.453125 C 159.40625 51.214844 159.261719 50.972656 159.117188 50.683594 C 158.777344 50.105469 158.441406 49.527344 158.105469 48.898438 C 157.910156 48.5625 157.765625 48.175781 157.621094 47.839844 C 157.382812 47.308594 157.140625 46.78125 156.898438 46.25 C 156.753906 45.863281 156.609375 45.429688 156.464844 44.996094 C 156.273438 44.464844 156.128906 43.984375 155.9375 43.453125 C 155.792969 43.019531 155.695312 42.539062 155.550781 42.105469 C 155.453125 41.816406 155.40625 41.480469 155.359375 41.191406 C 155.503906 41.140625 155.648438 41.09375 155.792969 41.046875 C 165.378906 43.9375 183.210938 44.949219 187.496094 44.949219 C 191.785156 44.949219 209.566406 43.9375 219.203125 41.046875 C 219.347656 41.09375 219.492188 41.140625 219.636719 41.191406 Z M 215.011719 117.8125 L 159.984375 117.8125 C 150.878906 117.8125 143.503906 125.234375 143.503906 134.292969 C 143.503906 143.402344 150.878906 150.773438 159.984375 150.773438 L 214.964844 150.773438 C 224.070312 150.773438 231.441406 143.351562 231.441406 134.292969 C 231.492188 125.1875 224.070312 117.8125 215.011719 117.8125 Z M 215.011719 139.789062 L 159.984375 139.789062 C 156.949219 139.789062 154.492188 137.328125 154.492188 134.292969 C 154.492188 131.257812 156.949219 128.800781 159.984375 128.800781 L 214.964844 128.800781 C 218 128.800781 220.457031 131.257812 220.457031 134.292969 C 220.503906 137.328125 218 139.789062 215.011719 139.789062 Z M 215.011719 139.789062 " fill-opacity="1" fill-rule="nonzero"/></g></svg>