<svg xmlns="http://www.w3.org/2000/svg" xmlns:xlink="http://www.w3.org/1999/xlink" width="500" zoomAndPan="magnify" viewBox="0 0 375 374.999991" height="500" preserveAspectRatio="xMidYMid meet" version="1.0"><defs><clipPath id="6c09f5b8e6"><path d="M 75.902344 0 L 263 0 L 263 375 L 75.902344 375 Z M 75.902344 0 " clip-rule="nonzero"/></clipPath></defs><g clip-path="url(#6c09f5b8e6)"><path fill="#000000" d="M 214.222656 25.164062 L 240.15625 25.164062 L 240.921875 37.171875 C 232.480469 35.582031 218.882812 31.851562 215.320312 29.113281 C 214.992188 27.523438 214.609375 26.261719 214.222656 25.164062 Z M 261.8125 355.480469 L 248.160156 357.015625 L 210.550781 361.183594 L 212.304688 374.890625 L 262.796875 369.847656 Z M 124.53125 25.21875 C 124.53125 25.21875 124.53125 25.164062 124.53125 25.164062 L 98.652344 25.164062 L 97.886719 37.664062 C 106.109375 36.128906 119.707031 32.238281 123.269531 29.441406 C 123.707031 27.742188 124.148438 26.425781 124.53125 25.21875 Z M 75.957031 369.847656 L 126.449219 374.890625 L 128.203125 361.183594 L 76.941406 355.480469 Z M 238.566406 0.109375 L 206.878906 0.109375 L 206.878906 12.609375 L 239.332031 12.609375 Z M 249.914062 344.242188 L 208.90625 348.792969 L 175.957031 93.96875 L 162.796875 93.96875 L 139.554688 273.519531 L 138.511719 274.78125 L 137.796875 274.289062 C 136.097656 273.027344 133.578125 271.273438 130.34375 270.886719 C 129.738281 270.832031 129.082031 270.777344 128.421875 270.832031 C 128.203125 270.832031 127.984375 270.886719 127.765625 270.941406 C 125.242188 271.273438 123.214844 272.367188 121.734375 273.191406 C 121.242188 273.464844 120.472656 273.902344 120.691406 274.011719 C 120.253906 273.847656 119.378906 273.136719 118.117188 271.875 L 113.675781 267.488281 L 104.847656 276.371094 L 109.289062 280.757812 C 111.429688 282.894531 115.921875 287.335938 122.0625 286.402344 C 123.929688 286.128906 125.464844 285.417969 126.777344 284.757812 C 127.164062 284.539062 127.546875 284.320312 127.875 284.15625 C 128.203125 283.9375 128.699219 283.71875 129.027344 283.550781 C 129.410156 283.828125 130.011719 284.210938 130.398438 284.484375 C 130.671875 284.648438 130.945312 284.867188 131.21875 285.03125 C 131.4375 285.199219 131.660156 285.363281 131.933594 285.527344 C 133.796875 286.789062 135.769531 287.5 137.742188 287.71875 L 136.375 298.136719 L 134.726562 299.945312 C 134.5625 299.890625 134.398438 299.78125 134.234375 299.671875 L 133.027344 298.847656 C 132.644531 298.574219 132.207031 298.300781 131.769531 298.027344 C 129.628906 296.65625 126.886719 295.285156 123.433594 295.339844 C 123.214844 295.339844 123.050781 295.394531 122.832031 295.394531 C 120.253906 295.613281 118.0625 296.65625 116.472656 297.421875 C 115.867188 297.753906 114.882812 298.191406 114.609375 298.246094 C 114.222656 298.191406 113.292969 297.753906 111.042969 295.722656 L 106.4375 291.503906 L 99.09375 299.617188 L 98.050781 300.765625 L 102.710938 304.988281 C 105.179688 307.238281 109.785156 311.402344 115.976562 310.691406 C 118.445312 310.417969 120.472656 309.429688 122.0625 308.609375 C 122.667969 308.277344 123.597656 307.839844 123.707031 307.785156 C 124.148438 307.894531 125.296875 308.664062 126.066406 309.15625 C 126.613281 309.539062 127.164062 309.867188 127.710938 310.253906 C 128.421875 310.691406 129.082031 311.019531 129.792969 311.347656 C 131.382812 312.0625 132.972656 312.445312 134.5625 312.5 L 133.46875 320.941406 L 130.5625 324.453125 L 129.847656 323.957031 C 128.808594 323.191406 127.546875 322.257812 126.011719 321.546875 C 124.476562 320.832031 122.613281 320.339844 120.527344 320.503906 C 117.734375 320.667969 115.484375 321.929688 113.839844 322.863281 C 113.347656 323.136719 112.578125 323.574219 112.796875 323.683594 C 112.359375 323.519531 111.484375 322.808594 110.222656 321.546875 L 105.78125 317.160156 L 100.738281 322.257812 L 96.953125 326.042969 L 101.394531 330.425781 C 103.535156 332.566406 108.027344 336.953125 114.167969 336.074219 C 116.582031 335.691406 118.445312 334.648438 119.980469 333.773438 C 120.308594 333.550781 120.804688 333.332031 121.132812 333.167969 C 121.515625 333.386719 122.117188 333.828125 122.503906 334.101562 C 122.996094 334.484375 123.488281 334.8125 123.984375 335.140625 C 126.339844 336.675781 128.808594 337.445312 131.21875 337.445312 C 131.273438 337.445312 131.328125 337.445312 131.382812 337.445312 L 129.902344 348.902344 L 83.414062 343.75 L 77.875 343.148438 C 79.683594 316.613281 82.207031 279.660156 84.726562 242.160156 C 85.878906 241.996094 87.085938 241.777344 88.183594 241.390625 C 88.894531 241.171875 89.609375 240.898438 90.320312 240.679688 C 92.074219 240.078125 93.882812 239.417969 94.925781 239.582031 C 95.035156 239.582031 95.144531 239.636719 95.308594 239.691406 C 95.914062 239.914062 96.734375 240.40625 97.613281 240.953125 C 99.257812 241.941406 101.285156 243.203125 103.863281 243.859375 C 105.066406 244.132812 106.273438 244.296875 107.480469 244.296875 C 108.632812 244.296875 109.726562 244.1875 110.824219 243.96875 C 114.222656 243.3125 117.183594 241.832031 119.269531 240.789062 L 122.558594 239.144531 L 124.859375 237.992188 L 124.3125 236.84375 L 119.324219 226.808594 L 113.730469 229.605469 C 111.921875 230.480469 108.632812 232.128906 106.824219 231.6875 C 106.164062 231.523438 105.179688 230.921875 104.191406 230.316406 C 102.4375 229.222656 100.296875 227.960938 97.503906 227.355469 C 97.339844 227.300781 97.226562 227.300781 97.117188 227.246094 C 96.789062 227.191406 96.40625 227.136719 96.078125 227.136719 C 92.292969 226.753906 88.949219 227.90625 86.207031 228.890625 L 85.605469 229.113281 C 85.878906 225.054688 86.152344 220.941406 86.429688 216.941406 C 89.5 217.105469 92.238281 216.449219 93.609375 216.007812 C 94.046875 215.84375 94.542969 215.679688 94.980469 215.515625 C 95.253906 215.40625 95.472656 215.351562 95.75 215.242188 C 96.132812 215.132812 96.515625 214.96875 96.84375 214.859375 C 98.214844 214.363281 99.53125 214.035156 100.296875 214.144531 C 100.957031 214.253906 101.941406 214.859375 102.984375 215.515625 C 104.628906 216.503906 106.660156 217.761719 109.234375 218.421875 C 110.441406 218.695312 111.703125 218.859375 112.851562 218.859375 C 117.625 218.859375 121.898438 216.722656 124.640625 215.351562 L 130.234375 212.554688 L 124.640625 201.371094 L 118.992188 203.949219 C 117.238281 204.824219 113.894531 206.523438 112.085938 206.03125 C 111.429688 205.867188 110.441406 205.261719 109.453125 204.660156 C 107.644531 203.507812 105.34375 202.136719 102.328125 201.589844 C 100.628906 201.261719 99.039062 201.316406 97.558594 201.535156 C 96.460938 201.699219 95.417969 201.917969 94.433594 202.246094 C 93.390625 202.578125 92.347656 202.90625 91.472656 203.234375 L 89.71875 203.835938 C 88.621094 204.167969 87.6875 204.277344 87.140625 204.222656 C 87.414062 200 87.6875 195.777344 87.964844 191.613281 C 89.5 191.390625 90.867188 191.0625 91.746094 190.789062 C 92.457031 190.570312 93.171875 190.296875 93.9375 190.078125 C 94.816406 189.746094 95.691406 189.472656 96.460938 189.253906 C 97.226562 189.035156 97.886719 188.925781 98.378906 188.980469 C 98.433594 188.980469 98.488281 188.980469 98.542969 188.980469 C 99.203125 189.089844 100.1875 189.691406 101.230469 190.351562 C 102.875 191.335938 104.902344 192.597656 107.480469 193.257812 C 108.6875 193.53125 109.949219 193.695312 111.097656 193.695312 C 115.867188 193.695312 120.144531 191.558594 122.886719 190.1875 L 128.476562 187.390625 L 122.886719 176.207031 L 117.292969 179.003906 C 115.484375 179.878906 112.195312 181.523438 110.386719 181.085938 C 109.726562 180.921875 108.742188 180.316406 107.753906 179.714844 C 106.109375 178.726562 104.136719 177.523438 101.613281 176.917969 C 101.285156 176.863281 101.011719 176.753906 100.683594 176.699219 C 100.1875 176.589844 99.695312 176.535156 99.203125 176.535156 C 95.582031 176.261719 92.402344 177.414062 89.773438 178.34375 L 88.839844 178.671875 C 91.910156 131.46875 94.324219 93.3125 94.324219 88.210938 L 96.84375 50.4375 C 106.714844 49.234375 121.679688 44.574219 127.601562 41.503906 C 130.453125 40.023438 134.34375 37.554688 135.277344 33.386719 C 135.714844 31.578125 136.097656 30.261719 136.484375 29.113281 C 136.867188 27.851562 137.25 26.644531 137.578125 25.21875 L 163.183594 25.21875 L 163.183594 75.273438 L 175.683594 75.273438 L 175.683594 25.21875 L 201.285156 25.21875 C 201.558594 26.535156 201.941406 27.632812 202.273438 28.78125 C 202.65625 29.933594 203.039062 31.195312 203.476562 33.003906 C 205.617188 42.433594 229.519531 48.246094 241.910156 49.945312 L 244.433594 87.992188 C 244.488281 94.078125 246.84375 131.6875 249.914062 178.125 C 247.0625 177.136719 243.554688 176.042969 239.609375 176.699219 C 238.839844 176.863281 238.074219 177.027344 237.414062 177.246094 C 235.441406 177.90625 233.851562 178.890625 232.535156 179.714844 C 231.546875 180.316406 230.5625 180.921875 229.902344 181.085938 C 228.148438 181.523438 224.804688 179.878906 222.996094 179.003906 L 217.402344 176.207031 L 211.8125 187.390625 L 217.402344 190.1875 C 220.144531 191.558594 224.421875 193.695312 229.191406 193.695312 C 230.398438 193.695312 231.601562 193.585938 232.808594 193.257812 C 235.386719 192.652344 237.414062 191.390625 239.058594 190.351562 C 239.554688 190.023438 239.992188 189.746094 240.429688 189.527344 C 240.921875 189.253906 241.417969 189.035156 241.746094 188.980469 C 241.910156 188.980469 242.074219 188.980469 242.238281 188.980469 C 243.28125 189.035156 244.816406 189.527344 246.296875 190.078125 C 247.007812 190.351562 247.777344 190.570312 248.488281 190.789062 C 249.039062 190.953125 249.859375 191.171875 250.792969 191.335938 C 251.066406 195.558594 251.339844 199.78125 251.613281 204.058594 C 251.285156 204.003906 250.902344 203.890625 250.574219 203.78125 L 248.816406 203.179688 C 247.449219 202.6875 245.96875 202.191406 244.324219 201.808594 C 243.335938 201.589844 242.292969 201.425781 241.199219 201.371094 C 240.15625 201.316406 239.058594 201.371094 237.910156 201.535156 C 234.894531 202.082031 232.644531 203.453125 230.78125 204.605469 C 229.738281 205.207031 228.808594 205.8125 228.148438 205.976562 C 226.394531 206.414062 223.050781 204.769531 221.242188 203.890625 L 215.648438 201.097656 L 210.058594 212.28125 L 215.648438 215.078125 C 218.390625 216.449219 222.667969 218.585938 227.4375 218.585938 C 228.644531 218.585938 229.847656 218.476562 231.054688 218.148438 C 233.632812 217.488281 235.660156 216.28125 237.304688 215.242188 C 238.347656 214.582031 239.332031 213.980469 239.992188 213.871094 C 240.484375 213.761719 241.199219 213.925781 241.964844 214.089844 C 242.570312 214.253906 243.28125 214.472656 243.9375 214.746094 C 244.160156 214.800781 244.378906 214.914062 244.597656 214.96875 C 245.308594 215.242188 246.023438 215.460938 246.734375 215.679688 C 248.050781 216.117188 250.078125 216.558594 252.4375 216.613281 C 252.710938 220.503906 252.929688 224.34375 253.203125 228.234375 C 250.410156 227.246094 247.007812 226.261719 243.226562 226.917969 C 243.0625 226.917969 242.953125 226.972656 242.789062 227.027344 C 242.238281 227.136719 241.691406 227.246094 241.199219 227.414062 C 239.167969 228.070312 237.523438 229.113281 236.097656 229.933594 C 235.113281 230.539062 234.125 231.140625 233.46875 231.304688 C 231.714844 231.742188 228.367188 230.097656 226.558594 229.222656 L 220.96875 226.425781 L 215.375 237.609375 L 220.96875 240.40625 C 222.886719 241.335938 225.519531 242.652344 228.589844 243.367188 C 229.902344 243.695312 231.328125 243.914062 232.753906 243.914062 C 233.960938 243.914062 235.167969 243.804688 236.375 243.476562 C 238.949219 242.816406 240.976562 241.613281 242.625 240.570312 C 242.953125 240.40625 243.226562 240.1875 243.5 240.023438 C 244.214844 239.582031 244.871094 239.253906 245.308594 239.144531 C 246.351562 238.980469 248.160156 239.636719 249.914062 240.242188 C 250.628906 240.515625 251.339844 240.734375 252.054688 240.953125 C 252.710938 241.171875 253.367188 241.335938 254.027344 241.503906 C 256.546875 279.113281 259.070312 316.171875 260.878906 342.761719 Z M 185.878906 81.90625 L 191.308594 85.03125 C 192.347656 85.636719 193.828125 86.457031 195.582031 87.117188 C 197.0625 87.664062 198.761719 88.101562 200.574219 88.101562 C 202.054688 88.101562 203.589844 87.828125 205.125 87.171875 C 207.371094 86.183594 208.90625 84.703125 210.113281 83.441406 C 210.386719 83.167969 210.769531 82.785156 211.042969 82.511719 C 211.484375 82.621094 212.140625 82.894531 212.632812 83.058594 C 213.183594 83.277344 213.785156 83.496094 214.332031 83.664062 C 220.308594 85.636719 226.066406 83.550781 228.476562 78.617188 C 228.53125 78.507812 228.589844 78.453125 228.644531 78.398438 L 231.21875 72.699219 L 223.816406 69.351562 L 219.816406 67.542969 L 217.898438 71.710938 L 217.074219 71.382812 C 214.71875 70.503906 211.152344 69.132812 207.152344 70.503906 C 204.464844 71.4375 202.65625 73.191406 201.339844 74.507812 C 200.902344 74.890625 200.296875 75.546875 200.574219 75.546875 C 200.296875 75.546875 199.859375 75.382812 199.257812 75.054688 C 198.761719 74.835938 198.214844 74.507812 197.503906 74.121094 L 192.074219 71.050781 Z M 190.210938 109.429688 L 191.308594 110.03125 C 192.292969 110.582031 193.71875 111.402344 195.363281 112.007812 C 196.898438 112.609375 198.707031 113.046875 200.574219 113.046875 C 202.054688 113.046875 203.589844 112.773438 205.125 112.117188 C 207.371094 111.128906 208.90625 109.648438 210.113281 108.386719 C 210.386719 108.113281 210.769531 107.730469 211.042969 107.457031 C 211.484375 107.566406 212.140625 107.839844 212.632812 108.003906 C 213.183594 108.222656 213.785156 108.441406 214.332031 108.609375 C 218.992188 110.140625 223.542969 109.210938 226.449219 106.359375 C 227.328125 105.484375 228.09375 104.496094 228.644531 103.289062 L 231.21875 97.585938 L 219.816406 92.433594 L 219.101562 94.023438 L 217.953125 96.601562 L 217.128906 96.273438 C 214.773438 95.394531 211.207031 94.023438 207.207031 95.394531 C 204.519531 96.328125 202.710938 98.082031 201.394531 99.398438 C 200.957031 99.78125 200.351562 100.4375 200.628906 100.4375 C 200.1875 100.382812 199.148438 99.945312 197.558594 99.011719 L 194.542969 97.3125 L 193.5 96.710938 L 192.128906 95.941406 L 185.933594 106.796875 Z M 210.167969 137.226562 C 210.222656 137.226562 210.277344 137.226562 210.277344 137.171875 C 212.523438 136.183594 214.058594 134.703125 215.265625 133.441406 C 215.539062 133.167969 215.921875 132.785156 216.199219 132.511719 C 216.636719 132.621094 217.292969 132.894531 217.789062 133.058594 C 218.335938 133.277344 218.9375 133.496094 219.488281 133.664062 C 220.035156 133.828125 220.527344 133.9375 221.078125 134.046875 C 226.175781 135.140625 230.890625 133.277344 233.25 129.222656 C 233.414062 128.949219 233.632812 128.671875 233.742188 128.34375 L 236.316406 122.640625 L 231.054688 120.230469 L 229.136719 119.351562 L 224.914062 117.433594 L 222.996094 121.601562 L 222.171875 121.273438 C 219.816406 120.394531 216.253906 119.023438 212.25 120.394531 C 209.5625 121.328125 207.753906 123.082031 206.4375 124.398438 C 206 124.835938 205.398438 125.4375 205.617188 125.4375 C 205.179688 125.382812 204.136719 124.945312 202.546875 124.011719 L 197.558594 121.164062 L 197.117188 120.941406 L 190.921875 131.796875 L 196.351562 134.867188 C 198.269531 135.964844 201.722656 137.9375 205.671875 137.9375 C 207.207031 138.101562 208.6875 137.828125 210.167969 137.226562 Z M 131.824219 0.109375 L 100.1875 0.109375 L 99.421875 12.609375 L 131.824219 12.609375 Z M 194.378906 0.109375 L 175.628906 0.109375 L 175.628906 12.609375 L 194.378906 12.609375 Z M 163.128906 0.109375 L 144.378906 0.109375 L 144.378906 12.609375 L 163.128906 12.609375 Z M 163.128906 0.109375 " fill-opacity="1" fill-rule="nonzero"/></g><path stroke-linecap="butt" transform="matrix(-0.147556, 0.735341, -0.735341, -0.147556, 125.417487, 125.05174)" fill="none" stroke-linejoin="miter" d="M 0.0019411 2.00164 L 34.153736 2.001297 " stroke="#000000" stroke-width="4" stroke-opacity="1" stroke-miterlimit="4"/></svg>