<svg xmlns="http://www.w3.org/2000/svg" xmlns:xlink="http://www.w3.org/1999/xlink" width="500" zoomAndPan="magnify" viewBox="0 0 375 374.999991" height="500" preserveAspectRatio="xMidYMid meet" version="1.0"><defs><clipPath id="705956397c"><path d="M 0 10 L 374 10 L 374 366.652344 L 0 366.652344 Z M 0 10 " clip-rule="nonzero"/></clipPath></defs><path stroke-linecap="butt" transform="matrix(-0.166473, 0.731291, -0.731291, -0.166473, 122.719823, 139.875519)" fill="none" stroke-linejoin="miter" d="M 0.000344324 1.999139 L 14.123613 1.999721 " stroke="#000000" stroke-width="4" stroke-opacity="1" stroke-miterlimit="4"/><g clip-path="url(#705956397c)"><path fill="#000000" d="M 18.460938 299.65625 C 33.421875 309.675781 58.089844 308.621094 75.046875 305.207031 C 77.507812 304.714844 79.976562 304.015625 82.46875 303.6875 C 81.507812 308.078125 80.957031 312.246094 80.742188 316.734375 C 78.621094 318.671875 77.09375 321.445312 76.996094 324.34375 C 76.898438 327.035156 77.691406 329.816406 78.476562 332.367188 C 80.792969 339.878906 84.394531 347.089844 89.894531 352.808594 C 99.96875 363.277344 115.511719 366.066406 129.46875 366.28125 C 132.527344 366.328125 135.589844 366.273438 138.640625 366.097656 C 146.824219 365.515625 154.785156 364.390625 162.765625 362.453125 C 165.058594 361.890625 167.53125 361.367188 169.707031 360.4375 C 172.828125 359.109375 174.203125 356.183594 177.882812 355.230469 C 180.3125 354.601562 182.578125 354.273438 184.875 355.484375 C 187.402344 354.929688 189.890625 354.242188 192.34375 353.429688 C 198.859375 351.238281 205.261719 348.738281 211.539062 345.917969 C 213.503906 345.046875 215.710938 344.261719 217.484375 343.039062 C 217.882812 342.765625 218.171875 342.390625 218.414062 341.980469 C 220.089844 339.199219 220.535156 337.582031 224.050781 336.691406 C 225.921875 336.214844 227.867188 336.691406 229.667969 335.867188 C 231.363281 335.089844 232.953125 333.910156 234.5 332.890625 C 237.609375 330.855469 240.691406 328.769531 243.742188 326.640625 C 246.734375 324.554688 249.929688 322.566406 252.765625 320.300781 C 253.078125 320.046875 253.367188 319.777344 253.628906 319.476562 C 253.890625 319.175781 254.132812 318.855469 254.34375 318.515625 C 255.3125 316.925781 255.460938 315.019531 256.601562 313.503906 C 258.65625 310.761719 261.851562 311.082031 264.535156 309.453125 C 266.566406 308.214844 268.59375 306.332031 270.34375 304.703125 C 276.339844 299.152344 281.9375 293.179688 287.574219 287.257812 C 291.175781 283.46875 294.769531 279.425781 298.828125 276.113281 C 301.859375 273.628906 304.222656 274.132812 306.972656 272.671875 C 310.0625 271.023438 313.027344 268.804688 315.949219 266.863281 C 318.886719 264.878906 321.808594 262.863281 324.714844 260.828125 C 326.238281 259.761719 327.902344 258.734375 329.335938 257.570312 C 330.867188 256.328125 331.632812 254.023438 333.355469 253.113281 C 333.5 253.035156 333.644531 252.976562 333.800781 252.917969 C 333.867188 252.886719 333.9375 252.867188 334.011719 252.851562 C 334.816406 252.644531 335.679688 252.976562 336.464844 253.1875 C 340.578125 251.066406 355.773438 237.292969 358.960938 233.503906 C 359.8125 233.289062 360.734375 233.117188 361.546875 232.785156 C 364.511719 231.59375 367.339844 228.152344 368.945312 225.488281 C 373.875 217.277344 374.941406 207.488281 372.578125 198.28125 C 371.269531 193.191406 368.976562 189.082031 365.90625 184.867188 C 367.066406 178.507812 365.546875 170.308594 361.875 164.9375 C 360.335938 162.691406 358.15625 160.828125 355.757812 159.550781 C 354.789062 151.582031 353.082031 143.480469 350.449219 135.878906 C 346.71875 125.132812 341.257812 116.777344 336.570312 106.648438 C 332.785156 98.464844 330.042969 89.714844 325.605469 81.84375 C 323.574219 78.230469 320.859375 74.101562 317.558594 71.519531 C 315.28125 69.738281 312.871094 69.214844 310.054688 69.5625 C 296.5625 71.25 284.921875 85.402344 274.015625 92.824219 C 273.066406 86.351562 271.738281 79.894531 269.308594 73.789062 C 267.265625 68.660156 264.628906 63.59375 261.832031 58.84375 C 260.058594 55.828125 258.09375 52.902344 256.484375 49.800781 C 254.25 45.476562 252.390625 40.949219 250.363281 36.523438 C 247.632812 30.550781 244.71875 24.746094 241.378906 19.085938 C 239.945312 16.652344 238.433594 13.753906 236.167969 11.988281 C 233.988281 10.304688 231.246094 9.914062 228.582031 10.234375 C 226.472656 10.75 224.5625 11.425781 222.664062 12.511719 C 218.335938 14.996094 214.6875 18.707031 211.101562 22.136719 C 207.335938 25.742188 203.558594 29.347656 199.335938 32.429688 C 192.710938 37.257812 185.03125 40.746094 177.417969 43.695312 C 176.109375 41.503906 174.628906 39.613281 172.738281 37.898438 C 167.714844 33.324219 157.835938 28.214844 151.179688 26.519531 C 146.019531 25.210938 140.597656 25.5 135.945312 28.261719 C 131.144531 31.113281 128.296875 36.597656 126.988281 41.871094 C 125.808594 46.640625 125.195312 51.554688 124.160156 56.363281 C 122.921875 62.089844 121.070312 67.683594 119.105469 73.199219 C 118.253906 75.574219 117.515625 78.171875 116.355469 80.398438 C 114.222656 80.546875 112.507812 81.339844 111.113281 82.988281 C 107.328125 87.476562 109.664062 91.207031 107.414062 95.996094 C 104.472656 97.128906 101.828125 98.554688 100.453125 101.597656 C 99.453125 103.808594 99.648438 105.746094 100.269531 107.996094 C 99.152344 111.046875 97.777344 114.03125 96.566406 117.066406 C 93.855469 117.289062 91.125 118.898438 89.371094 120.953125 C 88.015625 122.550781 87.242188 124.5 87.425781 126.613281 C 87.542969 127.953125 88.027344 129.027344 88.636719 130.210938 C 86.71875 133.835938 84.683594 137.429688 82.882812 141.105469 C 79.261719 142.578125 74.785156 144.554688 73.226562 148.46875 C 72.328125 150.71875 72.734375 152.582031 73.539062 154.761719 C 73.054688 156.070312 72.511719 157.386719 72.164062 158.746094 C 69.488281 159.53125 66.507812 160.296875 65.054688 162.933594 C 64.007812 164.8125 63.550781 169.175781 64.210938 171.230469 C 64.558594 172.3125 65.304688 172.972656 66.128906 173.71875 L 65.984375 173.941406 C 63.628906 177.488281 60.558594 180.726562 57.78125 183.945312 C 50.75 192.125 43.398438 199.996094 35.726562 207.566406 C 26.730469 216.542969 9.414062 231.921875 5.277344 243.875 C 4.027344 247.480469 3.613281 251.046875 3.75 254.847656 C 3.816406 256.707031 4.007812 258.625 3.730469 260.476562 C 3.582031 261.410156 2.953125 262.210938 2.421875 262.960938 C 0.0585938 266.285156 -0.0195312 268.707031 0.746094 272.621094 C 2.800781 283.214844 9.511719 293.65625 18.480469 299.65625 Z M 41.453125 303.734375 C 28.695312 302.214844 19.359375 298.367188 11.226562 288.023438 C 7.660156 283.207031 5.160156 277.34375 3.894531 271.515625 C 6.09375 273.785156 8.949219 275.367188 11.835938 276.558594 C 36.976562 287.007812 80.917969 279.019531 105.363281 269.007812 L 105.488281 269.132812 C 104.964844 270.199219 100.605469 274.28125 99.453125 275.519531 C 92.644531 282.820312 87.164062 290.613281 83.667969 300.03125 C 69.800781 303.183594 55.679688 305.421875 41.441406 303.734375 Z M 88.820312 296.632812 C 89.324219 298.878906 89.992188 300.535156 91.878906 302.011719 C 97.585938 306.449219 107.414062 307.371094 114.4375 307.300781 C 140.671875 307.078125 164.34375 293.042969 184.390625 277.234375 C 188.527344 273.980469 192.71875 270.75 196.59375 267.183594 C 199.90625 264.160156 203.121094 261.03125 206.242188 257.8125 C 209.339844 254.585938 212.515625 250.648438 216.15625 248.050781 C 218.027344 246.722656 219.972656 246.230469 222.199219 245.976562 C 226.597656 245.707031 233.824219 247.226562 238.296875 248.03125 C 247.710938 249.765625 257.097656 251.617188 266.460938 253.597656 C 263.140625 257.328125 259.960938 261.195312 256.640625 264.925781 C 250.996094 271.285156 244.960938 277.59375 238.722656 283.382812 C 222.617188 298.308594 204.195312 309.171875 184.285156 318.234375 C 173.078125 323.332031 161.429688 327.832031 149.351562 330.351562 C 139.09375 332.492188 128.859375 333.152344 118.398438 332.765625 C 115.617188 332.503906 112.839844 332.394531 110.058594 332.078125 C 103.347656 331.300781 95.582031 329.554688 89.683594 326.171875 C 87.347656 324.835938 85.449219 323.238281 84.753906 320.523438 C 83.039062 313.863281 85.332031 302.59375 88.8125 296.640625 Z M 364.917969 189.054688 C 365.769531 189.972656 366.457031 191.5625 366.972656 192.699219 C 369.742188 198.6875 370.953125 205.21875 370.089844 211.800781 C 369.429688 216.890625 367.640625 222.035156 364.414062 226.078125 C 363.609375 227.085938 362.410156 228.550781 361.226562 229.09375 C 359.863281 229.722656 358.15625 229.453125 356.976562 230.558594 C 354.59375 232.785156 352.425781 235.285156 350.0625 237.546875 C 345.636719 241.78125 340.832031 245.765625 335.988281 249.515625 C 329.644531 248.964844 330.777344 252.027344 326.933594 255.011719 C 324.125 257.191406 321.101562 259.179688 318.1875 261.214844 C 314.226562 263.976562 310.179688 266.894531 305.964844 269.269531 C 303.246094 270.808594 300.261719 270.644531 297.703125 272.757812 C 288.890625 280.007812 281.558594 288.886719 273.492188 296.929688 C 270.480469 299.9375 267.292969 303.289062 263.769531 305.683594 C 261.597656 307.148438 259.070312 307.507812 256.835938 308.757812 C 253.582031 310.589844 252.59375 313.378906 251.644531 316.761719 C 246.925781 320.523438 242.015625 323.867188 236.988281 327.203125 C 234.015625 329.167969 231.023438 331.253906 227.894531 332.957031 C 224.003906 332.695312 219.652344 334.0625 217.105469 337.164062 C 216.273438 338.171875 215.742188 339.558594 214.714844 340.382812 C 211.429688 343.011719 190.820312 350.792969 186.230469 351.550781 C 183.402344 352.015625 181.117188 350.765625 177.804688 351.617188 C 175.734375 352.148438 173.523438 353.148438 171.828125 354.464844 C 170.445312 355.550781 169.011719 357.113281 167.34375 357.753906 C 165.117188 358.59375 162.609375 359.109375 160.285156 359.640625 C 148.691406 362.296875 136.257812 363.636719 124.375 362.734375 C 111.9375 361.792969 99.222656 358.652344 90.777344 348.796875 C 86.019531 343.40625 83.300781 336.535156 81.207031 329.769531 C 84.335938 332.328125 87.433594 334.238281 91.230469 335.664062 C 118.515625 345.917969 153.535156 340.414062 180.429688 331.28125 C 188.449219 328.558594 196.207031 325.164062 203.90625 321.648438 C 211.867188 318.011719 220.023438 314.019531 227.265625 309.085938 C 240.960938 299.761719 252.484375 287.753906 264.476562 276.414062 C 272.039062 269.25 279.992188 262.503906 287.921875 255.746094 C 291.902344 252.355469 295.777344 248.757812 299.882812 245.523438 C 311.765625 236.140625 324.628906 228.066406 336.851562 219.148438 C 342.585938 214.972656 348.335938 210.648438 353.480469 205.753906 C 359.039062 200.460938 361.984375 196.042969 364.667969 188.859375 C 364.742188 188.925781 364.820312 188.984375 364.898438 189.0625 Z M 355.832031 163.589844 C 356.171875 163.746094 356.453125 163.941406 356.734375 164.183594 C 360.917969 167.789062 362.640625 173.960938 362.863281 179.292969 C 363.234375 187.976562 360.328125 194.90625 354.449219 201.226562 C 350.285156 205.703125 345.480469 209.515625 340.65625 213.253906 C 327.148438 223.734375 312.320312 232.476562 299.03125 243.207031 C 293.695312 247.597656 288.425781 252.066406 283.226562 256.628906 C 275.875 262.96875 268.554688 269.308594 261.484375 275.957031 C 255.421875 281.664062 249.503906 287.5 243.363281 293.132812 C 240.660156 295.601562 237.988281 298.132812 235.109375 300.410156 C 223.855469 309.335938 211.839844 315.628906 198.707031 321.328125 C 195.414062 322.761719 192.128906 324.3125 188.769531 325.601562 C 185.679688 326.792969 182.484375 327.792969 179.34375 328.847656 C 163.179688 334.257812 146.785156 337.929688 129.710938 338.511719 C 116.90625 338.949219 92.402344 337.050781 82.671875 327.957031 C 81.855469 327.054688 81.160156 326.144531 80.675781 325.011719 C 80.074219 323.578125 80.289062 322.472656 80.917969 321.09375 C 81.121094 320.648438 81.265625 320.347656 81.730469 320.164062 C 82.214844 320.71875 82.300781 321.65625 82.621094 322.335938 C 83.164062 323.480469 84.066406 324.613281 84.976562 325.484375 C 93.59375 333.773438 114.40625 335.585938 125.972656 335.429688 C 128.414062 335.390625 130.851562 335.273438 133.292969 335.089844 C 135.734375 334.90625 138.164062 334.644531 140.585938 334.324219 C 143.007812 333.996094 145.417969 333.597656 147.820312 333.132812 C 150.222656 332.667969 152.605469 332.125 154.96875 331.515625 C 176.238281 326.097656 203.21875 313.019531 221.28125 300.527344 C 225 297.910156 228.621094 295.15625 232.136719 292.269531 C 235.652344 289.378906 239.0625 286.367188 242.355469 283.234375 C 249.347656 276.539062 255.699219 269.296875 262.160156 262.105469 C 269.996094 253.390625 277.996094 244.660156 286.664062 236.75 C 298.265625 226.339844 310.070312 216.171875 322.082031 206.238281 C 330.574219 199.316406 339.882812 192.8125 347.496094 184.914062 C 354.011719 178.148438 356.007812 172.875 355.84375 163.601562 Z M 339.117188 118.589844 C 340.53125 120.304688 341.558594 123.132812 342.488281 125.160156 C 347.8125 136.664062 350.730469 146.929688 352.277344 159.53125 C 352.695312 162.902344 353.199219 166.410156 352.878906 169.8125 C 351.851562 180.5625 339.796875 188.800781 332.046875 195.042969 L 318.488281 206.113281 L 311.167969 212.152344 C 310.460938 206.9375 310.371094 201.59375 310.574219 196.34375 C 311.449219 173.390625 319.332031 151.609375 330.644531 131.820312 C 333.269531 127.234375 335.921875 122.765625 338.980469 118.460938 C 339.03125 118.511719 339.070312 118.550781 339.117188 118.597656 Z M 337.675781 116.050781 C 335.59375 119.054688 333.605469 122.117188 331.707031 125.238281 C 329.808594 128.359375 328 131.539062 326.292969 134.765625 C 324.582031 137.992188 322.960938 141.269531 321.453125 144.59375 C 319.929688 147.917969 318.515625 151.28125 317.191406 154.691406 C 315.660156 158.617188 314.179688 162.515625 313.046875 166.578125 C 311.253906 172.972656 310.101562 179.410156 309.199219 185.992188 C 307.953125 195.074219 307.542969 204.824219 309.140625 213.886719 C 307.542969 215.699219 305.453125 217.257812 303.613281 218.820312 C 299.921875 221.941406 296.175781 225.03125 292.550781 228.230469 C 284.105469 235.683594 276.234375 243.621094 268.359375 251.667969 C 261.203125 250.175781 254.015625 248.789062 246.839844 247.414062 C 239.796875 246.066406 226.878906 242.972656 220.023438 243.992188 C 217.679688 244.339844 215.671875 245.414062 213.871094 246.917969 C 211.800781 248.632812 209.988281 250.660156 208.117188 252.597656 C 205.03125 255.796875 201.941406 259.054688 198.726562 262.117188 C 184.835938 275.347656 163.570312 290.902344 145.902344 298.113281 C 131.289062 304.074219 111.375 308.273438 96.316406 301.933594 C 95.117188 301.339844 93.914062 300.742188 92.886719 299.867188 C 91.726562 298.878906 91.007812 297.621094 90.941406 296.078125 C 90.816406 293.539062 91.773438 290.902344 93.101562 288.78125 C 97.867188 281.140625 105.925781 273.863281 112.160156 267.292969 C 116.433594 262.832031 120.636719 258.316406 124.789062 253.75 C 127.105469 251.152344 129.285156 248.449219 131.589844 245.832031 C 133.207031 247.316406 134.871094 248.613281 136.78125 249.699219 C 150.144531 257.289062 169.5625 258.101562 184.160156 254.082031 C 188.953125 252.761719 195.460938 250.621094 199.355469 247.546875 C 202.617188 244.980469 205.15625 241.042969 207.789062 237.816406 C 222.683594 219.59375 236.128906 199.996094 245.785156 178.449219 C 247.089844 175.53125 248.117188 172.382812 248.96875 169.300781 C 249.96875 165.683594 250.605469 162.011719 252.496094 158.714844 C 258.285156 148.605469 270.230469 148.566406 280.222656 145.777344 C 286.664062 143.972656 293.199219 141.917969 299.234375 139 C 312.308594 132.671875 326.121094 120.566406 333.269531 107.859375 C 335 109.777344 336.445312 113.683594 337.703125 116.066406 Z M 198.519531 145.910156 C 196.4375 143.886719 194.523438 141.53125 193.425781 138.816406 C 196.640625 132.273438 198.6875 125.402344 200.398438 118.347656 C 201.195312 115.023438 201.902344 111.675781 202.519531 108.3125 C 203.703125 101.714844 204.207031 93.183594 208.757812 87.941406 C 211.003906 85.34375 213.890625 84.605469 217.144531 84.324219 C 219.179688 84.246094 221.214844 84.65625 223.148438 85.238281 C 227.605469 86.5625 231.789062 88.707031 236.003906 90.636719 C 239.644531 92.292969 243.515625 93.6875 246.78125 96.0625 C 253.609375 101.027344 257.609375 111.222656 258.925781 119.285156 C 253.839844 119.761719 248.652344 120.199219 243.691406 121.523438 C 234.925781 123.871094 230.742188 129.085938 226.335938 136.644531 C 224.757812 139.4375 223.09375 142.230469 221.851562 145.195312 C 214.132812 144.882812 206.125 144.359375 198.519531 145.921875 Z M 231.585938 148.101562 C 232.914062 148.34375 234.296875 148.703125 235.421875 149.496094 C 235.585938 149.613281 235.75 149.742188 235.90625 149.875 C 236.058594 150.011719 236.207031 150.148438 236.351562 150.300781 C 236.496094 150.449219 236.621094 150.613281 236.746094 150.769531 C 236.875 150.933594 236.988281 151.097656 237.097656 151.273438 C 237.203125 151.445312 237.300781 151.628906 237.398438 151.816406 C 237.484375 152 237.570312 152.191406 237.640625 152.386719 C 237.707031 152.582031 237.773438 152.773438 237.824219 152.976562 C 237.871094 153.179688 237.910156 153.375 237.949219 153.578125 C 238.140625 154.90625 237.996094 156.332031 237.175781 157.425781 C 236.28125 158.597656 235.128906 159.074219 233.714844 159.257812 C 230.609375 159.199219 228.089844 157.15625 225.164062 156.3125 C 222.480469 155.546875 219.683594 155.3125 216.933594 154.917969 C 210.851562 154.042969 204.875 151.851562 200.15625 147.792969 C 201.792969 147.421875 203.449219 147.308594 205.125 147.171875 C 210.164062 146.628906 226.714844 147.238281 231.605469 148.113281 Z M 210.210938 155.816406 C 212.128906 156.429688 214.09375 156.746094 216.082031 157.078125 C 214.683594 160.277344 213.078125 163.378906 211.519531 166.488281 L 210.472656 168.476562 C 203.421875 163.640625 189.253906 155.421875 186.472656 147.21875 C 186.929688 144.253906 187.972656 142.714844 189.949219 140.550781 C 190.589844 140.902344 191.140625 141.96875 191.578125 142.578125 C 195.90625 148.625 203.152344 153.589844 210.210938 155.816406 Z M 209.707031 170.5 C 206.433594 169.949219 203.140625 169.53125 199.839844 169.261719 C 193.71875 168.785156 187.558594 169.097656 181.4375 169.425781 C 182.386719 166.59375 183.597656 163.851562 184.738281 161.101562 C 187.140625 160.199219 189.921875 159.664062 192.167969 158.453125 C 193.609375 159.113281 197.144531 162.242188 198.753906 163.367188 C 202.328125 165.867188 206.132812 168.019531 209.71875 170.511719 Z M 190.132812 156.71875 C 186.765625 157.785156 183.296875 158.765625 180.03125 160.140625 C 178.929688 160.664062 177.84375 161.148438 176.691406 161.535156 C 176.757812 161.246094 176.835938 160.964844 176.914062 160.671875 C 178.152344 156.1875 181.910156 154.480469 185.621094 152.335938 C 186.433594 152.597656 189.320312 155.894531 190.144531 156.71875 Z M 178.878906 163.679688 C 179.753906 163.105469 180.625 162.679688 181.5625 162.253906 C 181.464844 163.609375 179.21875 168.136719 178.628906 169.746094 L 176.207031 170.085938 C 176.363281 168.058594 177.988281 165.519531 178.878906 163.679688 Z M 187.25 171.394531 C 194.183594 171.054688 201.234375 171.179688 208.101562 172.332031 C 213.289062 173.207031 221.085938 175.734375 224.195312 180.347656 C 224.960938 181.484375 225.367188 182.925781 225.046875 184.285156 C 225.019531 184.402344 224.992188 184.527344 224.941406 184.644531 C 224.902344 184.757812 224.855469 184.875 224.804688 184.980469 C 224.757812 185.097656 224.699219 185.207031 224.632812 185.3125 C 224.574219 185.417969 224.507812 185.523438 224.429688 185.621094 C 224.359375 185.71875 224.285156 185.816406 224.195312 185.914062 C 224.117188 186.011719 224.03125 186.097656 223.933594 186.175781 C 223.847656 186.261719 223.75 186.339844 223.652344 186.40625 C 223.558594 186.484375 223.449219 186.550781 223.34375 186.609375 C 219.875 188.734375 216.699219 185.292969 213.863281 183.730469 C 212.417969 182.9375 210.964844 182.441406 209.378906 182.007812 C 200.1875 179.574219 186.617188 178.769531 177.078125 179.359375 C 175.121094 179.488281 168.003906 180.640625 167.066406 180.515625 L 166.863281 180.203125 C 166.890625 178.933594 167.800781 177.488281 168.632812 176.570312 C 172.816406 171.925781 181.40625 171.722656 187.230469 171.382812 Z M 204.109375 183.207031 C 202.839844 185.710938 201.589844 188.238281 200.246094 190.699219 C 199.132812 192.738281 197.863281 194.714844 196.914062 196.835938 C 194.800781 196.023438 192.660156 195.371094 190.472656 194.78125 C 182.339844 192.753906 174.433594 192.511719 166.164062 193.714844 C 168.546875 189.820312 170.785156 185.960938 172.875 181.898438 C 175.714844 181.609375 178.570312 181.53125 181.425781 181.425781 C 188.980469 181.144531 196.660156 181.9375 204.101562 183.199219 Z M 166.929688 182.78125 C 167.761719 182.664062 168.574219 182.511719 169.410156 182.355469 L 169.652344 182.394531 C 169.601562 182.851562 169.652344 182.675781 169.457031 183.082031 C 168.332031 185.371094 166.628906 187.433594 165.339844 189.652344 C 164.5 191.117188 163.460938 193.734375 162.339844 194.800781 C 162 195.121094 161.390625 195.285156 160.964844 195.441406 L 160.761719 195.296875 C 160.933594 194.230469 161.476562 193.222656 161.824219 192.203125 C 163.09375 188.511719 163.976562 185.515625 166.929688 182.78125 Z M 173.214844 195.429688 C 179.492188 194.5 189.351562 196.3125 195.324219 198.640625 C 199.847656 200.394531 206.191406 204.046875 208.167969 208.789062 C 208.71875 210.105469 208.914062 211.628906 208.292969 212.957031 C 207.859375 213.886719 207.074219 214.613281 206.09375 214.921875 C 201.960938 216.230469 199.003906 212.054688 196.253906 209.765625 C 194.890625 208.621094 193.476562 207.730469 191.886719 206.90625 C 183.414062 203.164062 168.933594 202.496094 159.847656 204.261719 C 158.511719 204.523438 157.195312 204.871094 155.898438 205.296875 C 154.542969 205.753906 152.816406 206.695312 151.421875 206.789062 L 151.191406 206.539062 C 151.132812 205.472656 151.851562 204.414062 152.488281 203.621094 C 157.1875 197.835938 166.230469 196.050781 173.222656 195.429688 Z M 190.191406 208.769531 C 187.519531 213.554688 182.9375 218.820312 179.277344 222.890625 L 177.242188 221.863281 C 168.777344 218.042969 162.105469 216.019531 152.933594 214.640625 C 154.726562 212.101562 156.265625 209.871094 157.542969 207.023438 C 160.671875 206.035156 164.167969 205.820312 167.441406 205.65625 C 174.976562 205.296875 183.140625 205.976562 190.191406 208.769531 Z M 152.953125 208.921875 C 153.351562 208.554688 153.953125 208.351562 154.445312 208.15625 C 154.734375 208.214844 154.589844 208.15625 154.851562 208.410156 C 154.824219 208.535156 154.785156 208.699219 154.734375 208.835938 C 154.097656 210.472656 151.386719 214.167969 149.824219 214.921875 L 149.4375 214.75 C 149.46875 214.535156 149.46875 214.457031 149.5625 214.234375 C 150.117188 212.925781 151.976562 209.851562 152.953125 208.941406 Z M 150.9375 217.394531 C 160.34375 216.804688 175.65625 222.753906 183.625 227.921875 C 185.835938 229.34375 188.867188 231.449219 189.359375 234.21875 C 189.5625 235.34375 189.320312 236.546875 188.652344 237.476562 C 188.566406 237.59375 188.476562 237.710938 188.382812 237.816406 C 188.285156 237.921875 188.179688 238.03125 188.070312 238.125 C 187.964844 238.222656 187.847656 238.320312 187.730469 238.40625 C 187.617188 238.496094 187.492188 238.574219 187.363281 238.648438 C 187.238281 238.726562 187.113281 238.796875 186.976562 238.855469 C 186.839844 238.910156 186.707031 238.96875 186.570312 239.019531 C 186.433594 239.066406 186.289062 239.105469 186.152344 239.144531 C 186.007812 239.183594 185.871094 239.203125 185.726562 239.222656 C 182.648438 239.667969 180.082031 237.195312 177.816406 235.460938 C 170.386719 229.761719 156.324219 224.160156 146.851562 225.167969 C 143.480469 225.527344 142.214844 226.894531 140.179688 229.402344 C 139.996094 228.539062 139.800781 227.667969 139.742188 226.785156 C 139.609375 224.652344 140.316406 222.765625 141.75 221.203125 C 144.257812 218.480469 147.367188 217.609375 150.957031 217.402344 Z M 145.449219 227.832031 C 146.175781 227.621094 146.929688 227.523438 147.675781 227.398438 C 154.445312 226.863281 166.746094 231.0625 172.625 234.570312 C 171.558594 236.671875 170.183594 238.648438 169.03125 240.714844 C 166.609375 245.066406 165.050781 249.429688 163.714844 254.214844 C 162.183594 254.101562 160.652344 253.925781 159.125 253.78125 C 150.542969 253.023438 139.183594 250.445312 132.972656 244.203125 C 134.484375 241.683594 136.625 239.386719 138.398438 237.03125 C 140.652344 234.035156 142.773438 230.441406 145.457031 227.832031 Z M 332.308594 104.894531 C 330.847656 107.382812 329.394531 109.902344 327.667969 112.230469 C 319.503906 123.191406 307.359375 132.980469 294.847656 138.488281 C 289.152344 140.988281 282.894531 142.75 276.882812 144.273438 C 268.378906 146.433594 260.386719 146.445312 253.871094 153.121094 C 248.484375 158.628906 247.691406 165.867188 245.359375 172.847656 C 244.070312 176.695312 242.414062 180.4375 240.640625 184.082031 C 234.753906 196.195312 226.539062 209.679688 218.570312 220.542969 C 215.375 224.894531 211.90625 229.101562 208.535156 233.320312 C 205.804688 236.730469 202.191406 241.644531 199.179688 244.640625 C 194.589844 249.195312 182.589844 252.460938 176.207031 253.46875 C 172.796875 254.011719 169.429688 254.234375 165.980469 254.226562 C 167.074219 249.214844 171.25 239.628906 174.8125 235.800781 C 177.117188 237.875 180.304688 240.578125 183.394531 241.277344 C 185.214844 241.683594 187.140625 241.402344 188.710938 240.375 C 188.886719 240.257812 189.058594 240.132812 189.222656 240.007812 C 189.386719 239.871094 189.542969 239.734375 189.699219 239.589844 C 189.851562 239.445312 189.988281 239.289062 190.132812 239.125 C 190.269531 238.960938 190.394531 238.796875 190.523438 238.621094 C 190.636719 238.445312 190.753906 238.261719 190.851562 238.078125 C 190.949219 237.894531 191.042969 237.699219 191.121094 237.507812 C 191.210938 237.3125 191.277344 237.109375 191.335938 236.914062 C 191.394531 236.710938 191.453125 236.507812 191.488281 236.304688 C 191.898438 234.316406 191.304688 232.5625 190.203125 230.914062 C 188.0625 227.960938 184.605469 225.953125 181.59375 224.003906 C 185.050781 219.023438 189.109375 214.652344 192.160156 209.347656 C 195.402344 211.25 197.253906 214.207031 200.226562 215.980469 C 202.132812 217.113281 204.410156 217.644531 206.578125 217.015625 C 206.78125 216.957031 206.976562 216.890625 207.171875 216.8125 C 207.363281 216.734375 207.546875 216.648438 207.730469 216.550781 C 207.914062 216.453125 208.101562 216.347656 208.265625 216.230469 C 208.4375 216.113281 208.601562 215.988281 208.769531 215.851562 C 208.933594 215.71875 209.078125 215.582031 209.222656 215.425781 C 209.367188 215.28125 209.503906 215.117188 209.640625 214.960938 C 209.765625 214.796875 209.890625 214.632812 210.007812 214.449219 C 210.125 214.273438 210.222656 214.089844 210.316406 213.90625 C 211.074219 212.433594 211.160156 210.746094 210.65625 209.175781 C 208.980469 204.007812 203.335938 200.152344 198.800781 197.738281 C 201.15625 193.035156 203.769531 188.519531 205.941406 183.710938 C 209.183594 184.128906 211.808594 185.03125 214.589844 186.757812 C 215.789062 187.503906 216.972656 188.308594 218.289062 188.839844 C 220.148438 189.585938 221.921875 189.800781 223.78125 188.976562 C 225.308594 188.296875 226.414062 187.132812 227.003906 185.5625 C 227.644531 183.867188 227.613281 182.046875 226.832031 180.40625 C 224.410156 175.289062 216.71875 172.480469 211.742188 170.773438 C 213.921875 166.246094 216.46875 161.933594 218.433594 157.300781 C 220.835938 157.679688 223.382812 157.941406 225.667969 158.785156 C 227.761719 159.550781 229.714844 160.878906 231.945312 161.285156 C 233.851562 161.632812 235.933594 161.246094 237.492188 160.0625 C 238.984375 158.9375 239.875 157.253906 240.078125 155.410156 C 240.3125 153.269531 239.808594 150.960938 238.441406 149.265625 C 235.390625 145.476562 228.601562 145.640625 224.167969 145.195312 C 226.742188 139.640625 231.652344 130.800781 236.484375 127.1875 C 244.214844 121.410156 257.28125 122.457031 266.527344 120.90625 C 276.679688 119.207031 286.519531 115.332031 294.761719 109.128906 C 305.074219 101.375 315.457031 89.316406 317.335938 76.191406 C 322.480469 79.460938 329.722656 98.824219 332.300781 104.902344 Z M 281.277344 91.449219 C 289.328125 85.109375 300.066406 74.46875 310.382812 72.925781 C 311.535156 72.828125 313.308594 72.925781 314.304688 73.566406 C 314.777344 73.867188 314.933594 74.109375 315.03125 74.660156 C 315.226562 75.726562 314.777344 77.132812 314.488281 78.171875 C 312.824219 84.113281 309.925781 89.519531 306.460938 94.589844 C 306.761719 90.566406 307.117188 86.011719 306.390625 82.039062 C 306.257812 81.28125 306.121094 80.3125 305.402344 79.894531 C 305.144531 79.742188 305.035156 79.835938 304.765625 79.90625 C 304.300781 80.320312 304.164062 80.808594 304.097656 81.40625 C 303.902344 82.976562 304.195312 84.761719 304.289062 86.351562 C 304.453125 89.210938 304.601562 94.597656 303.417969 97.1875 C 302.710938 98.738281 301.046875 100.171875 299.855469 101.375 C 292.910156 108.371094 284.589844 113.152344 275.304688 116.300781 C 271.023438 117.523438 266.78125 118.5 262.335938 118.878906 C 261.433594 114.0625 259.710938 109.554688 257.957031 105 C 266.441406 102.605469 274.421875 96.886719 281.296875 91.46875 Z M 258.0625 59.347656 C 259.605469 61.042969 260.746094 63.679688 261.773438 65.734375 C 266.179688 74.605469 270.433594 85.023438 270.433594 95.074219 C 267.769531 97.128906 259.449219 102.1875 256.292969 101.9375 C 255.941406 101.90625 255.828125 101.617188 255.613281 101.363281 C 251.894531 95.792969 248.273438 92.417969 242.074219 89.761719 C 245.40625 79.140625 252.523438 68.933594 257.96875 59.242188 C 258.007812 59.28125 258.042969 59.308594 258.074219 59.347656 Z M 254.074219 52.398438 C 254.867188 53.832031 255.738281 55.207031 256.621094 56.585938 C 255.34375 59.132812 253.714844 61.585938 252.28125 64.066406 C 247.632812 72.09375 242.976562 79.964844 239.808594 88.726562 C 235.324219 86.992188 231.101562 84.683594 226.578125 83.007812 C 223.285156 81.890625 219.894531 81.3125 216.449219 80.941406 C 230.703125 73.710938 244.796875 63.476562 252.089844 48.78125 C 252.855469 49.65625 253.484375 51.332031 254.074219 52.398438 Z M 237.097656 18.65625 C 239.34375 20.65625 249.492188 42.09375 250.722656 46.195312 C 242.597656 62.023438 228.378906 72.945312 212.359375 80.023438 C 208.972656 81.515625 205.523438 82.996094 201.980469 84.0625 C 198.878906 84.984375 195.761719 85.828125 192.625 86.59375 C 186.578125 88.027344 180.933594 88.84375 176.507812 93.621094 C 176.21875 93.929688 175.9375 94.261719 175.664062 94.589844 C 175.394531 94.929688 175.140625 95.269531 174.910156 95.625 C 174.667969 95.984375 174.445312 96.34375 174.242188 96.722656 C 174.039062 97.101562 173.84375 97.476562 173.667969 97.875 C 172.632812 100.144531 172.03125 102.730469 171.238281 105.105469 C 169.410156 110.542969 167.578125 115.992188 165.464844 121.332031 C 162.640625 128.457031 159.5 135.445312 156.054688 142.296875 C 149.796875 154.636719 141.488281 165.558594 132.710938 176.171875 C 131.046875 178.1875 129.457031 180.292969 127.753906 182.277344 C 121.34375 189.75 101.683594 195.042969 91.910156 195.808594 C 92.636719 188.402344 96.316406 183.132812 100.074219 176.976562 C 102.6875 179.039062 105.652344 181.878906 108.992188 182.65625 C 110.777344 183.074219 112.664062 182.90625 114.234375 181.917969 C 114.40625 181.8125 114.574219 181.695312 114.738281 181.5625 C 114.902344 181.433594 115.058594 181.300781 115.203125 181.164062 C 115.347656 181.027344 115.492188 180.871094 115.617188 180.71875 C 115.753906 180.5625 115.878906 180.398438 115.996094 180.234375 C 116.113281 180.066406 116.21875 179.894531 116.316406 179.710938 C 116.414062 179.535156 116.5 179.351562 116.585938 179.15625 C 116.664062 178.972656 116.742188 178.777344 116.800781 178.585938 C 116.859375 178.390625 116.917969 178.1875 116.953125 177.992188 C 117.402344 175.863281 116.683594 174.195312 115.511719 172.480469 C 113.273438 169.773438 110.292969 168.050781 107.269531 166.351562 C 109.351562 162.011719 113.265625 156.039062 115.9375 151.871094 C 119.597656 153.382812 122.457031 156.050781 125.875 157.960938 C 127.707031 158.976562 129.757812 159.589844 131.832031 158.9375 C 133.457031 158.425781 134.757812 157.222656 135.53125 155.710938 C 136.394531 154.042969 136.605469 152.027344 135.996094 150.234375 C 134.621094 146.152344 125.351562 142.246094 121.488281 140.433594 C 123.171875 135.871094 125.605469 130.703125 128.605469 126.867188 C 133.15625 127.523438 143.277344 131.847656 147.125 130.210938 C 148.75 129.511719 149.980469 128.058594 150.5625 126.402344 C 150.601562 126.285156 150.640625 126.167969 150.667969 126.050781 C 150.707031 125.933594 150.734375 125.808594 150.765625 125.691406 C 150.792969 125.578125 150.8125 125.449219 150.84375 125.335938 C 150.863281 125.207031 150.882812 125.09375 150.902344 124.964844 C 150.921875 124.839844 150.929688 124.722656 150.9375 124.597656 C 150.9375 124.472656 150.957031 124.355469 150.957031 124.230469 C 150.957031 124.101562 150.957031 123.988281 150.957031 123.859375 C 150.957031 123.734375 150.957031 123.617188 150.9375 123.492188 C 150.9375 123.367188 150.921875 123.25 150.902344 123.125 C 150.882812 123 150.863281 122.882812 150.84375 122.757812 C 150.824219 122.628906 150.792969 122.515625 150.765625 122.398438 C 150.734375 122.28125 150.707031 122.15625 150.667969 122.039062 C 150.628906 121.921875 150.601562 121.804688 150.5625 121.691406 C 150.523438 121.574219 150.472656 121.457031 150.4375 121.339844 C 150.386719 121.226562 150.339844 121.109375 150.289062 121 C 150.242188 120.886719 150.183594 120.777344 150.125 120.671875 C 147.871094 116.40625 138.71875 115.777344 134.367188 114.410156 C 136.488281 109.585938 139.308594 105.039062 141.4375 100.191406 C 143.597656 100.453125 145.730469 100.773438 147.839844 101.316406 C 150.058594 101.878906 152.371094 102.722656 154.660156 102.914062 C 156.34375 103.0625 157.980469 102.558594 159.269531 101.453125 C 160.816406 100.113281 161.652344 98.117188 161.738281 96.09375 C 161.824219 94.046875 161.167969 92 159.734375 90.507812 C 156.867188 87.535156 151.414062 88.019531 147.617188 87.941406 C 149.167969 85.847656 150.628906 83.734375 151.996094 81.523438 C 153.980469 78.304688 155.832031 74.671875 158.492188 71.957031 C 165.738281 64.582031 181.378906 64.503906 191.285156 61.972656 C 196.304688 60.683594 201.300781 58.554688 205.824219 56.03125 C 220.582031 47.824219 232.457031 35.195312 237.117188 18.6875 Z M 105.265625 165.453125 C 103.132812 164.394531 100.867188 163.503906 98.640625 162.691406 C 92.363281 160.5 85.605469 159.355469 78.980469 158.988281 C 80.609375 156.960938 81.914062 154.703125 83.242188 152.484375 C 86.835938 150.882812 92.617188 150.863281 96.53125 150.574219 C 101.460938 150.078125 108.800781 150.214844 113.613281 151.378906 C 110.726562 155.992188 108.074219 160.789062 105.273438 165.460938 Z M 119.183594 139.371094 C 114.476562 137.789062 109.769531 137.296875 104.839844 137.21875 C 100.664062 137.148438 96.617188 137.574219 92.472656 138.0625 C 93.789062 134.980469 95.136719 131.597656 96.808594 128.71875 C 102.542969 126.304688 108.878906 125.953125 115.007812 125.585938 C 118.523438 125.363281 122.5625 125.578125 126.019531 126.285156 C 125.011719 128.496094 123.792969 130.617188 122.679688 132.777344 C 121.554688 134.980469 120.539062 137.3125 119.171875 139.378906 Z M 128.246094 93.144531 C 134.367188 91.234375 140.132812 90.363281 146.523438 90.179688 C 148.652344 90.132812 150.832031 90.121094 152.964844 90.246094 C 154.792969 90.355469 157.109375 90.644531 158.347656 92.117188 C 159.347656 93.308594 159.695312 95.074219 159.492188 96.585938 C 159.316406 97.914062 158.660156 99.214844 157.5625 100.007812 C 156.933594 100.464844 156.199219 100.695312 155.421875 100.726562 C 152.625 100.8125 147.609375 98.804688 144.507812 98.214844 C 137.804688 97.167969 134.289062 96.703125 128.246094 93.144531 Z M 203.597656 33.507812 C 211.519531 27.410156 220.023438 15.710938 229.523438 13.453125 C 230.839844 13.347656 231.78125 13.328125 232.941406 14.0625 C 233.792969 14.605469 234.25 15.527344 234.421875 16.507812 C 235.363281 21.769531 228.390625 32.167969 225.195312 36.550781 C 225.804688 34.71875 226.277344 32.945312 226.492188 31.027344 C 226.742188 28.777344 227.246094 22.359375 225.882812 20.644531 C 225.582031 20.558594 225.511719 20.472656 225.214844 20.605469 C 224.699219 20.847656 224.378906 21.226562 224.285156 21.796875 C 224.050781 23.195312 224.234375 24.84375 224.226562 26.277344 C 224.1875 30.125 223.59375 33.796875 222.164062 37.382812 C 220.03125 42.746094 209.097656 50.285156 203.925781 53.28125 C 201.804688 54.511719 199.617188 55.527344 197.378906 56.488281 C 193.117188 58.320312 188.664062 59.414062 184.128906 60.316406 C 182.898438 55.421875 181.632812 50.953125 179.074219 46.542969 C 187.742188 43.644531 196.363281 39.070312 203.605469 33.507812 Z M 125.847656 63.730469 C 126.667969 61.003906 127.347656 58.242188 127.890625 55.449219 C 129.175781 48.386719 129.574219 40.15625 134.28125 34.351562 C 136.925781 31.085938 140.632812 29.457031 144.742188 29.019531 C 151.375 28.476562 164.238281 35.214844 169.429688 39.332031 C 175.296875 43.996094 179.78125 53.503906 180.59375 60.871094 C 171.121094 62.738281 159.597656 63.835938 153.933594 72.773438 C 151.53125 76.5625 149.691406 80.671875 147.007812 84.296875 C 146.066406 85.515625 145.117188 86.738281 144.167969 87.941406 C 136.617188 88.191406 132.597656 89.269531 125.476562 91.179688 C 124.132812 90.21875 122.824219 89.199219 121.566406 88.125 C 120.304688 87.050781 119.085938 85.925781 117.921875 84.75 C 120.9375 77.898438 123.726562 70.902344 125.855469 63.71875 Z M 111.753906 89.492188 C 111.890625 87.417969 112.984375 85.683594 114.542969 84.375 C 115.707031 85.179688 117.195312 87.648438 118.417969 88.792969 C 118.785156 89.132812 119.152344 89.460938 119.53125 89.792969 C 119.910156 90.121094 120.285156 90.441406 120.675781 90.75 C 121.0625 91.0625 121.449219 91.371094 121.847656 91.671875 C 122.242188 91.972656 122.640625 92.273438 123.046875 92.554688 C 123.453125 92.84375 123.859375 93.125 124.277344 93.40625 C 124.691406 93.6875 125.109375 93.949219 125.527344 94.210938 C 125.953125 94.472656 126.378906 94.734375 126.804688 94.976562 C 127.230469 95.230469 127.667969 95.472656 128.101562 95.703125 C 128.539062 95.9375 128.984375 96.167969 129.429688 96.390625 C 129.875 96.617188 130.320312 96.828125 130.777344 97.042969 C 131.230469 97.246094 131.6875 97.449219 132.140625 97.644531 C 132.597656 97.835938 133.0625 98.019531 133.527344 98.203125 C 133.992188 98.378906 134.457031 98.554688 134.929688 98.71875 C 135.394531 98.882812 135.871094 99.039062 136.34375 99.183594 C 136.820312 99.328125 137.292969 99.476562 137.777344 99.609375 C 138.253906 99.746094 138.738281 99.871094 139.21875 99.988281 C 137.921875 102.296875 136.769531 104.707031 135.578125 107.0625 L 135.433594 107.277344 C 135.203125 107.402344 135.046875 107.441406 134.773438 107.433594 C 128.015625 107.375 120.316406 102.566406 115.839844 97.777344 C 113.90625 95.714844 111.597656 92.429688 111.785156 89.480469 Z M 134.078125 109.632812 L 132.023438 114.089844 C 128.789062 113.585938 125.390625 113.488281 122.117188 113.414062 C 116.9375 113.402344 111.617188 113.964844 106.503906 114.796875 C 107.152344 112.25 107.753906 109.679688 108.324219 107.113281 C 111.5625 105.640625 114.949219 104.824219 118.144531 103.167969 C 119.25 103.429688 121.867188 105.570312 123.054688 106.257812 C 126.320312 108.160156 130.378906 109.109375 134.078125 109.632812 Z M 103.261719 103.738281 C 104.402344 100.445312 108.976562 98.332031 111.898438 96.933594 C 112.265625 97.042969 115.386719 100.753906 116.191406 101.441406 C 113.234375 103.207031 109.292969 104.097656 106.019531 105.164062 C 105.285156 105.386719 104.238281 106.09375 103.484375 106.035156 C 103.203125 106.015625 103.164062 105.8125 103.019531 105.609375 C 102.980469 104.941406 103.039062 104.371094 103.261719 103.738281 Z M 103.125 108.886719 C 103.8125 108.539062 104.511719 108.21875 105.199219 107.886719 C 105.285156 107.964844 105.351562 108.160156 105.410156 108.265625 C 105.167969 110.660156 103.96875 113.152344 103.125 115.398438 L 100.695312 115.960938 L 100.519531 115.75 C 100.375 114.46875 102.542969 110.253906 103.117188 108.886719 Z M 91.695312 123.210938 C 96.335938 117.765625 111.589844 116.203125 118.5625 115.738281 C 118.980469 115.699219 119.394531 115.679688 119.820312 115.671875 C 126.863281 115.507812 133.554688 116.535156 140.390625 118.113281 C 142.679688 118.636719 145.894531 119.113281 147.609375 120.847656 C 147.714844 120.953125 147.8125 121.058594 147.90625 121.175781 C 148.003906 121.292969 148.09375 121.410156 148.167969 121.535156 C 148.246094 121.660156 148.324219 121.785156 148.390625 121.921875 C 148.460938 122.058594 148.519531 122.195312 148.578125 122.328125 C 148.632812 122.464844 148.683594 122.609375 148.722656 122.757812 C 148.761719 122.902344 148.800781 123.046875 148.820312 123.191406 C 148.847656 123.335938 148.867188 123.484375 148.875 123.636719 C 148.886719 123.792969 148.894531 123.9375 148.886719 124.085938 C 148.867188 125.355469 148.34375 126.585938 147.375 127.429688 C 146.542969 128.144531 145.46875 128.496094 144.371094 128.464844 C 141.449219 128.386719 138.03125 126.847656 135.171875 126.089844 C 130.648438 124.886719 126.019531 123.898438 121.363281 123.464844 C 112.5 123.074219 98.445312 123.636719 91.058594 128.824219 C 90.863281 128.078125 90.621094 127.292969 90.554688 126.515625 C 90.457031 125.316406 90.921875 124.132812 91.6875 123.230469 Z M 92.277344 130.792969 L 92.394531 130.898438 C 92.09375 132.660156 90.371094 137.089844 89.363281 138.652344 C 88.886719 139.398438 88.238281 139.503906 87.433594 139.667969 L 87.367188 139.332031 C 88.558594 136.34375 89.875 133.011719 92.277344 130.792969 Z M 77.402344 148.023438 C 81.101562 144.011719 90.273438 141.164062 95.453125 140.203125 C 98.128906 139.707031 100.808594 139.515625 103.523438 139.40625 C 105.351562 139.351562 107.230469 139.40625 109.050781 139.542969 C 110.960938 139.679688 112.886719 139.910156 114.726562 140.425781 C 118.84375 141.578125 130.457031 146.472656 133.121094 149.710938 C 133.863281 150.613281 134.300781 151.71875 134.164062 152.898438 C 134.019531 154.148438 133.109375 155.507812 132.113281 156.242188 C 128.285156 159.09375 122.03125 152.308594 118.609375 150.710938 C 116.082031 149.527344 113.273438 149.0625 110.542969 148.636719 C 102.058594 147.519531 93.265625 148.140625 84.847656 149.515625 C 83.222656 149.789062 81.59375 150.078125 80.007812 150.554688 C 78.894531 150.894531 76.878906 152.308594 75.832031 152.046875 C 75.746094 151.84375 75.726562 151.824219 75.707031 151.5625 C 75.628906 150.351562 76.617188 148.867188 77.382812 148.023438 Z M 78.679688 153.90625 C 78.097656 155.285156 76.976562 156.613281 76.125 157.84375 L 75.988281 157.699219 C 75.882812 156.574219 75.832031 155.703125 76.5 154.730469 C 77.042969 153.964844 77.722656 153.925781 78.574219 153.761719 L 78.671875 153.898438 Z M 68.480469 163.910156 C 69.820312 162.183594 72.792969 161.808594 74.816406 161.535156 C 82.988281 160.355469 94.699219 163.25 102.359375 166.421875 C 105.875 167.875 113.3125 171.578125 114.738281 175.386719 C 115.085938 176.328125 115.046875 177.296875 114.628906 178.199219 C 114.15625 179.214844 113.246094 180.222656 112.171875 180.589844 C 110.359375 181.222656 108.441406 180.183594 106.863281 179.378906 C 104.789062 178.089844 102.96875 176.441406 100.957031 175.066406 C 94.398438 170.597656 80.277344 167.285156 72.558594 168.253906 C 70.785156 168.476562 69.480469 169.667969 67.8125 169.996094 C 67.425781 169.679688 67.261719 169.492188 67.164062 168.980469 C 66.875 167.390625 67.503906 165.171875 68.480469 163.902344 Z M 72.5 170.648438 C 73.257812 170.539062 74.042969 170.511719 74.804688 170.453125 C 82.476562 169.863281 91.066406 172.730469 97.980469 175.882812 C 97.109375 177.566406 96.007812 179.175781 95.007812 180.796875 C 92.007812 185.710938 90.242188 190.167969 89.710938 195.933594 C 87.640625 195.972656 85.574219 195.984375 83.503906 195.964844 C 82.960938 195.953125 82.410156 195.933594 81.867188 195.894531 C 74.273438 195.421875 65.035156 192.628906 59.851562 186.765625 C 64.296875 181.5625 68.171875 175.9375 72.5 170.648438 Z M 32.242188 215.785156 C 41.082031 206.957031 50.488281 198.203125 58.359375 188.5 C 61.09375 191.058594 63.726562 192.960938 67.175781 194.453125 C 82.273438 200.984375 100.269531 198.328125 115.144531 192.4375 C 118.84375 190.972656 123.171875 189.21875 126.28125 186.738281 C 129.070312 184.515625 131.976562 180.535156 134.320312 177.714844 C 147.945312 161.390625 157.390625 146.492188 165.503906 126.828125 C 167.800781 121.273438 169.96875 115.5625 171.9375 109.882812 C 173.117188 106.472656 174.058594 102.828125 175.511719 99.523438 C 179.132812 91.304688 185.3125 90.507812 193.234375 88.648438 C 197.921875 87.554688 202.648438 86.378906 207.132812 84.597656 L 207.335938 84.625 C 207.363281 84.769531 204.921875 87.523438 204.640625 88.046875 C 201.089844 94.726562 200.507812 101.675781 199.210938 108.984375 C 198.125 115.089844 194.617188 129.367188 191.714844 134.472656 C 190.039062 135.394531 188.699219 136.414062 187.441406 137.867188 C 184.363281 141.433594 182.949219 145.136719 183.269531 149.828125 C 182.339844 150.339844 181.425781 150.882812 180.527344 151.445312 C 177.425781 153.402344 174.367188 156.011719 173.601562 159.792969 C 173.222656 161.652344 173.5625 163.386719 174.589844 164.976562 C 172.933594 168.988281 172.808594 169.804688 168.964844 172.179688 C 167.957031 172.800781 166.996094 173.457031 166.183594 174.320312 C 164.351562 176.269531 164.023438 178.742188 164.160156 181.300781 C 161.765625 183.082031 160.671875 185.3125 159.519531 187.976562 C 155.820312 186.667969 151.289062 185.71875 147.386719 185.410156 C 144.148438 185.148438 140.808594 185.652344 137.980469 187.300781 C 133.777344 189.75 127.648438 197.523438 123.8125 201.34375 C 119.773438 205.367188 115.425781 209.039062 111.078125 212.722656 C 102.128906 220.261719 91.910156 226.496094 81.769531 232.261719 C 75.117188 236.050781 68.296875 239.851562 61.101562 242.507812 C 52.609375 245.648438 39.339844 248.363281 30.351562 247.566406 C 24.804688 247.074219 19.078125 245.375 15.390625 240.984375 C 14.460938 239.695312 13.957031 238.445312 13.492188 236.945312 C 16.878906 230.207031 26.683594 221.328125 32.242188 215.785156 Z M 11.496094 238.871094 C 12.398438 241.414062 14.042969 243.398438 16.183594 245 C 23.332031 250.347656 32.976562 250.457031 41.480469 249.46875 C 47.910156 248.71875 54.777344 247.34375 60.878906 245.171875 C 66.304688 243.246094 71.511719 240.511719 76.589844 237.828125 C 91.871094 229.753906 106.554688 220.28125 119.386719 208.632812 C 123.074219 205.277344 126.785156 201.800781 130.214844 198.183594 C 132.617188 195.644531 134.738281 192.609375 137.496094 190.457031 C 139.628906 188.792969 141.855469 188.054688 144.5 187.675781 C 148.894531 187.269531 154.726562 189.042969 159.015625 190.070312 C 158.242188 192.175781 157.398438 194.25 156.488281 196.292969 C 154.417969 197.339844 151.996094 198.902344 150.386719 200.566406 C 148.382812 202.652344 147.898438 204.675781 147.976562 207.46875 L 149.003906 209.105469 C 148.042969 210.890625 146.957031 212.898438 145.488281 214.3125 C 142.707031 217.007812 139.335938 217.25 137.292969 221.679688 C 135.703125 225.109375 136.382812 229.53125 137.632812 232.949219 C 134.941406 236.632812 127.609375 246.121094 124.46875 248.683594 C 122.726562 250.105469 120.507812 251.105469 118.535156 252.171875 C 114.6875 254.246094 110.816406 256.269531 106.921875 258.238281 C 101.371094 261.011719 95.570312 263.6875 89.703125 265.730469 C 68.25 273.222656 38.507812 277.507812 16.589844 270.171875 C 15.019531 269.589844 13.414062 268.976562 12 268.078125 C 9.453125 266.4375 8.5625 263.871094 7.953125 261.050781 C 6.257812 253.226562 7.175781 245.628906 11.503906 238.871094 Z M 5.996094 264.082031 C 6.277344 264.742188 6.585938 265.421875 6.945312 266.042969 C 9.394531 270.238281 14.304688 272.097656 18.769531 273.292969 C 42.613281 279.660156 72.753906 275.210938 95.386719 266.175781 C 104.082031 262.707031 112.082031 258.375 120.160156 253.683594 C 120.230469 253.75 120.21875 253.867188 120.238281 253.953125 C 118.6875 255.824219 112.75 262.453125 111.039062 263.425781 C 107.949219 265.179688 103.65625 266.535156 100.308594 267.804688 C 77.167969 276.617188 42.253906 282.964844 17.984375 276.285156 C 12.707031 274.832031 6.507812 272.300781 3.640625 267.3125 C 3.988281 265.90625 4.988281 265.03125 5.996094 264.082031 Z M 5.996094 264.082031 " fill-opacity="1" fill-rule="nonzero"/></g></svg>