<svg xmlns="http://www.w3.org/2000/svg" xmlns:xlink="http://www.w3.org/1999/xlink" width="500" zoomAndPan="magnify" viewBox="0 0 375 374.999991" height="500" preserveAspectRatio="xMidYMid meet" version="1.0"><defs><clipPath id="8186b2ad5b"><path d="M 0 37.5 L 375 37.5 L 375 351.75 L 0 351.75 Z M 0 37.5 " clip-rule="nonzero"/></clipPath></defs><g clip-path="url(#8186b2ad5b)"><path fill="#000000" d="M 7.511719 327.441406 L 36.121094 342.503906 L 28.222656 351.277344 L -0.164062 337.097656 C 0.9375 334.28125 2.429688 330.363281 4.253906 325.675781 Z M 193.519531 88.351562 L 193.519531 106.007812 C 200.148438 103.195312 204.785156 95.964844 207.824219 88.238281 C 207.382812 88.296875 206.886719 88.296875 206.441406 88.296875 L 193.519531 88.296875 Z M 167.121094 88.296875 C 169.9375 95.746094 174.355469 102.863281 180.929688 105.84375 L 180.929688 88.351562 L 167.949219 88.351562 C 167.671875 88.351562 167.398438 88.296875 167.121094 88.296875 Z M 237.648438 327.605469 L 275.480469 327.605469 L 275.480469 315.023438 L 237.648438 315.023438 Z M 356.996094 318.390625 L 329.269531 333.011719 L 296.90625 302.113281 C 299.335938 298.859375 300.664062 294.996094 300.664062 290.855469 L 300.664062 220.503906 C 300.664062 207.152344 298.011719 194.128906 292.710938 181.878906 L 284.976562 163.890625 C 282.660156 158.484375 280.890625 152.800781 279.730469 147.003906 L 274.042969 118.699219 L 261.671875 121.183594 L 267.359375 149.488281 C 268.6875 156.164062 270.730469 162.675781 273.378906 168.910156 L 279.125 182.265625 C 264.433594 165.601562 252.28125 146.507812 243.613281 126.203125 L 241.125 120.410156 L 229.527344 125.375 L 232.015625 131.167969 C 244.109375 159.421875 262.445312 185.464844 284.976562 206.378906 L 287.132812 208.363281 C 287.683594 212.394531 288.015625 216.476562 288.015625 220.558594 L 288.015625 290.96875 C 288.015625 292.621094 287.351562 294.222656 286.191406 295.382812 L 279.125 302.445312 L 206.167969 302.445312 L 206.167969 315.023438 L 225.054688 315.023438 L 225.054688 327.605469 L 193.574219 327.605469 L 193.574219 119.195312 C 213.347656 115 222.238281 90.226562 224.667969 74.609375 C 225 73.34375 225.222656 72.074219 225.332031 70.75 C 246.207031 82.171875 275.480469 99.71875 282.824219 110.753906 C 289.394531 120.628906 320.324219 196.390625 365.722656 313.867188 Z M 232.015625 224.257812 L 222.460938 232.476562 L 268.464844 286.113281 L 278.019531 277.890625 Z M 212.40625 157.601562 L 212.40625 170.179688 L 231.296875 170.179688 L 231.296875 157.601562 Z M 206.5 75.714844 C 208.597656 75.714844 210.476562 74.722656 211.691406 73.011719 C 211.964844 72.625 212.132812 72.238281 212.296875 71.851562 C 212.738281 70.75 212.90625 69.589844 212.683594 68.429688 C 212.628906 68.042969 212.519531 67.601562 212.351562 67.21875 L 210.863281 63.300781 L 210.804688 63.132812 L 208.429688 56.84375 L 207.382812 54.085938 L 206.058594 50.554688 L 204.511719 46.46875 L 204.398438 46.136719 C 202.578125 41.226562 197.828125 37.972656 192.582031 37.972656 L 181.699219 37.972656 C 176.453125 37.972656 171.761719 41.28125 169.882812 46.136719 L 169.660156 46.691406 L 168.226562 50.554688 L 166.734375 54.46875 L 165.851562 56.84375 L 163.476562 63.132812 L 162.921875 64.625 L 162.261719 66.390625 L 161.929688 67.21875 C 161.210938 69.203125 161.433594 71.300781 162.648438 73.011719 C 162.757812 73.175781 162.921875 73.285156 163.035156 73.453125 C 164.25 74.886719 165.90625 75.714844 167.839844 75.714844 Z M 180.929688 119.085938 L 180.929688 327.605469 L 149.449219 327.605469 L 149.449219 315.023438 L 168.335938 315.023438 L 168.335938 302.445312 L 95.378906 302.445312 L 88.308594 295.382812 C 87.148438 294.167969 86.488281 292.621094 86.488281 290.96875 L 86.488281 220.503906 C 86.488281 216.367188 86.820312 212.335938 87.371094 208.308594 L 89.523438 206.324219 C 112.058594 185.410156 130.394531 159.421875 142.488281 131.113281 L 144.972656 125.320312 L 133.375 120.355469 L 130.890625 126.148438 C 122.21875 146.507812 110.070312 165.546875 95.378906 182.210938 L 101.121094 168.855469 C 103.773438 162.621094 105.816406 156.109375 107.144531 149.433594 L 112.832031 121.125 L 100.460938 118.644531 L 94.773438 146.949219 C 93.613281 152.746094 91.84375 158.425781 89.523438 163.835938 L 81.792969 181.824219 C 76.546875 194.128906 73.839844 207.09375 73.839844 220.449219 L 73.839844 290.855469 C 73.839844 294.996094 75.164062 298.859375 77.597656 302.113281 L 45.230469 333.011719 L 17.507812 318.390625 L 8.835938 313.8125 C 54.234375 196.335938 85.105469 120.574219 91.734375 110.699219 C 99.078125 99.660156 128.351562 82.113281 149.226562 70.691406 C 149.390625 73.175781 150.054688 75.605469 151.160156 77.867188 C 153.867188 92.820312 161.875 114.835938 180.929688 119.085938 Z M 151.988281 232.476562 L 142.433594 224.257812 L 96.429688 277.890625 L 105.984375 286.113281 Z M 99.023438 327.605469 L 136.855469 327.605469 L 136.855469 315.023438 L 99.023438 315.023438 Z M 370.25 325.675781 L 366.9375 327.441406 L 338.328125 342.503906 L 346.226562 351.277344 L 374.613281 337.097656 C 373.5625 334.28125 372.074219 330.363281 370.25 325.675781 Z M 370.25 325.675781 " fill-opacity="1" fill-rule="nonzero"/></g><path stroke-linecap="butt" transform="matrix(0.75, 0, 0, 0.75, 103.790323, 220.790304)" fill="none" stroke-linejoin="miter" d="M -0.00168105 1.998345 L 111.61291 1.998345 " stroke="#000000" stroke-width="4" stroke-opacity="1" stroke-miterlimit="4"/></svg>