<svg xmlns="http://www.w3.org/2000/svg" xmlns:xlink="http://www.w3.org/1999/xlink" width="500" zoomAndPan="magnify" viewBox="0 0 375 374.999991" height="500" preserveAspectRatio="xMidYMid meet" version="1.0"><path fill="#000000" d="M 304.175781 62.515625 C 303.457031 60.359375 290.625 23.375 263.472656 23.375 L 253.566406 23.375 C 249.925781 15.925781 243.507812 5.804688 237.863281 2.980469 L 237.707031 2.773438 L 237.296875 2.722656 C 236.683594 2.464844 236.015625 2.261719 235.398438 2.207031 L 232.472656 2.15625 C 226.109375 1.488281 209.070312 -0.0507812 187.308594 -0.0507812 C 166.417969 -0.0507812 149.945312 1.335938 143.066406 2.054688 L 142.914062 1.796875 L 139.164062 2.15625 C 138.601562 2.207031 137.984375 2.414062 137.421875 2.671875 L 137.113281 2.722656 L 136.957031 2.875 C 131.3125 5.597656 124.792969 15.820312 121.097656 23.375 L 111.195312 23.375 C 83.839844 23.375 71.058594 60.925781 70.542969 62.464844 C 68.851562 67.292969 29.230469 181.386719 29.230469 246.113281 C 29.230469 283.613281 43.1875 311.402344 46.78125 317.980469 L 46.78125 351.574219 L 81.9375 351.574219 L 81.9375 375 L 292.78125 375 L 292.78125 351.574219 L 327.9375 351.574219 L 327.9375 317.980469 C 331.582031 311.402344 345.488281 283.613281 345.488281 246.113281 C 345.488281 181.542969 306.023438 67.808594 304.175781 62.515625 Z M 316.183594 339.914062 L 292.78125 339.914062 L 292.78125 322.347656 L 316.183594 322.347656 Z M 281.078125 351.625 L 281.078125 363.339844 L 93.640625 363.339844 L 93.640625 345.769531 L 281.027344 345.769531 L 281.027344 351.625 Z M 58.945312 183.800781 L 61.101562 189.246094 L 71.980469 184.878906 L 69.828125 179.433594 C 69.722656 179.179688 58.894531 151.335938 68.132812 110.136719 L 69.414062 104.433594 C 76.191406 82.089844 81.476562 66.730469 81.632812 66.265625 C 81.734375 65.957031 92.511719 35.085938 111.195312 35.085938 L 117.25 35.085938 C 116.480469 41.042969 118.277344 44.742188 120.382812 46.953125 C 122.332031 49.519531 132.441406 61.953125 152.203125 69.761719 L 152.203125 111.320312 L 105.34375 111.320312 L 105.34375 222.6875 L 269.324219 222.6875 L 269.324219 111.320312 L 222.464844 111.320312 L 222.464844 70.070312 C 242.226562 62.3125 252.335938 49.625 254.285156 46.902344 C 256.339844 44.691406 258.136719 40.992188 257.417969 35.085938 L 263.472656 35.085938 C 279.179688 35.085938 290.164062 57.585938 293.035156 66.265625 L 293.085938 66.371094 C 293.242188 66.78125 298.578125 82.140625 305.304688 104.539062 L 306.585938 110.1875 C 315.773438 151.128906 304.996094 179.230469 304.890625 179.484375 L 302.738281 184.929688 L 313.617188 189.296875 L 315.773438 183.851562 C 316.03125 183.234375 319.160156 175.171875 320.90625 161.609375 C 328.039062 191.351562 333.738281 222.535156 333.738281 246.164062 C 333.738281 277.859375 322.652344 302.515625 318.542969 310.632812 L 292.78125 310.632812 L 292.78125 283.046875 C 294.472656 280.789062 299.554688 275.496094 310.332031 275.496094 L 316.183594 275.496094 L 316.183594 263.785156 L 310.332031 263.785156 C 302.839844 263.785156 297.089844 265.632812 292.78125 268.046875 L 292.78125 259.878906 C 295.652344 256.234375 304.585938 246.214844 316.183594 246.214844 L 322.035156 246.214844 L 322.035156 234.503906 L 316.183594 234.503906 C 306.585938 234.503906 298.578125 238.765625 292.78125 243.390625 L 292.78125 93.699219 L 281.078125 93.699219 L 281.078125 298.304688 C 268.453125 279.09375 260.703125 259.675781 257.570312 239.332031 L 256.800781 234.347656 L 117.761719 234.347656 L 117.148438 239.488281 C 114.683594 259.007812 106.832031 278.785156 93.691406 298.511719 L 93.691406 93.699219 L 81.992188 93.699219 L 81.992188 243.289062 C 76.140625 238.664062 68.183594 234.402344 58.585938 234.402344 L 52.734375 234.402344 L 52.734375 246.113281 L 58.585938 246.113281 C 70.1875 246.113281 79.117188 256.128906 81.992188 259.777344 L 81.992188 267.945312 C 77.679688 265.53125 71.929688 263.679688 64.4375 263.679688 L 58.535156 263.679688 L 58.535156 275.394531 L 64.386719 275.394531 C 75.214844 275.394531 80.296875 280.734375 81.9375 282.945312 L 81.9375 310.53125 L 56.175781 310.53125 C 52.015625 302.414062 40.980469 277.757812 40.980469 246.0625 C 40.980469 222.429688 46.679688 191.25 53.863281 161.507812 C 55.558594 175.121094 58.6875 183.183594 58.945312 183.800781 Z M 152.203125 164.074219 L 146.351562 164.074219 L 146.351562 175.789062 L 152.203125 175.789062 L 152.203125 187.5 L 163.902344 187.5 L 163.902344 175.789062 L 169.753906 175.789062 L 169.753906 164.074219 L 163.902344 164.074219 L 163.902344 123.03125 L 210.761719 123.03125 L 210.761719 164.074219 L 204.914062 164.074219 L 204.914062 175.789062 L 210.761719 175.789062 L 210.761719 187.5 L 222.464844 187.5 L 222.464844 175.789062 L 228.316406 175.789062 L 228.316406 164.074219 L 222.464844 164.074219 L 222.464844 123.03125 L 257.621094 123.03125 L 257.621094 210.925781 L 117.097656 210.925781 L 117.097656 123.03125 L 152.253906 123.03125 L 152.253906 164.074219 Z M 210.761719 111.320312 L 163.902344 111.320312 L 163.902344 73.40625 C 169.242188 74.691406 175.09375 75.566406 181.457031 75.925781 L 181.457031 76.027344 L 182.074219 76.027344 L 182.175781 77.054688 L 184.894531 76.078125 L 187.257812 76.128906 C 187.871094 76.128906 188.4375 76.128906 189.054688 76.128906 C 189.207031 76.128906 189.308594 76.128906 189.414062 76.128906 L 193.210938 76.128906 L 193.210938 75.976562 C 199.574219 75.71875 205.476562 74.949219 210.761719 73.714844 Z M 134.546875 23.066406 C 134.597656 23.167969 134.699219 23.269531 134.75 23.375 L 134.390625 23.375 C 134.445312 23.269531 134.496094 23.167969 134.546875 23.066406 Z M 240.378906 23.375 L 240.070312 23.375 C 240.121094 23.269531 240.171875 23.167969 240.222656 23.117188 C 240.273438 23.21875 240.328125 23.269531 240.378906 23.375 Z M 174.632812 42.792969 C 174.066406 42.378906 173.5 41.917969 172.9375 41.507812 C 172.628906 41.25 172.320312 41.042969 172.011719 40.789062 C 171.449219 40.375 170.882812 39.964844 170.320312 39.554688 C 169.960938 39.296875 169.652344 39.09375 169.292969 38.835938 C 169.035156 38.628906 168.730469 38.476562 168.472656 38.269531 C 167.957031 37.910156 167.394531 37.5 166.882812 37.140625 C 166.625 36.933594 166.367188 36.78125 166.058594 36.574219 C 165.339844 36.0625 164.675781 35.597656 163.957031 35.085938 L 211.328125 35.085938 C 210.199219 35.90625 209.019531 36.679688 207.835938 37.5 C 200.550781 42.585938 192.644531 48.082031 187.410156 54.707031 C 187.257812 54.554688 187.101562 54.347656 186.949219 54.195312 C 186.539062 53.679688 186.128906 53.21875 185.71875 52.757812 C 185.460938 52.5 185.203125 52.191406 184.945312 51.933594 C 184.433594 51.421875 183.921875 50.855469 183.40625 50.34375 C 183.203125 50.136719 182.996094 49.929688 182.792969 49.726562 C 182.023438 49.007812 181.25 48.289062 180.480469 47.570312 C 180.429688 47.515625 180.429688 47.515625 180.378906 47.464844 C 179.609375 46.796875 178.839844 46.128906 178.019531 45.460938 C 177.761719 45.257812 177.503906 45.050781 177.25 44.847656 C 176.683594 44.382812 176.066406 43.921875 175.503906 43.457031 C 175.246094 43.253906 174.9375 42.996094 174.632812 42.792969 Z M 245.714844 35.085938 C 246.125 36.78125 246.230469 38.117188 245.816406 38.886719 L 245.046875 39.8125 C 244.378906 40.789062 229.292969 61.902344 195.160156 64.210938 C 198.804688 58.152344 207.066406 52.398438 214.5625 47.15625 C 218.207031 44.589844 221.695312 42.175781 224.773438 39.65625 C 226.058594 38.628906 227.289062 37.550781 228.417969 36.472656 L 228.625 36.265625 C 229.035156 35.90625 229.394531 35.496094 229.804688 35.136719 L 230.675781 34.265625 L 231.5 33.390625 C 231.703125 33.183594 231.910156 32.980469 232.113281 32.773438 C 232.472656 32.414062 232.832031 32.054688 233.191406 31.644531 L 235.65625 29.230469 L 240.789062 24.144531 C 241.761719 25.839844 242.6875 27.585938 243.457031 29.230469 C 244.484375 31.386719 245.253906 33.441406 245.714844 35.085938 Z M 230.984375 13.765625 C 231.085938 14.023438 231.140625 14.28125 231.140625 14.589844 C 231.140625 14.742188 231.140625 14.949219 231.085938 15.152344 C 231.085938 15.207031 231.085938 15.207031 231.085938 15.257812 C 231.035156 15.515625 230.933594 15.820312 230.78125 16.128906 C 230.78125 16.128906 230.78125 16.179688 230.78125 16.179688 C 230.625 16.488281 230.472656 16.796875 230.265625 17.15625 C 230.265625 17.207031 230.214844 17.207031 230.214844 17.261719 C 230.011719 17.570312 229.804688 17.929688 229.546875 18.289062 C 229.496094 18.339844 229.445312 18.441406 229.394531 18.492188 C 229.1875 18.75 228.933594 19.058594 228.726562 19.367188 C 227.804688 20.496094 226.621094 21.832031 225.03125 23.476562 L 150.046875 23.476562 C 148.402344 21.882812 147.222656 20.546875 146.25 19.417969 C 145.941406 19.058594 145.683594 18.75 145.425781 18.441406 C 145.375 18.390625 145.324219 18.339844 145.273438 18.289062 C 144.964844 17.929688 144.707031 17.570312 144.503906 17.207031 C 144.503906 17.207031 144.503906 17.15625 144.453125 17.15625 C 143.988281 16.4375 143.734375 15.820312 143.632812 15.308594 C 143.632812 15.257812 143.632812 15.207031 143.632812 15.152344 C 143.578125 15 143.578125 14.792969 143.578125 14.640625 C 143.578125 14.484375 143.578125 14.28125 143.632812 14.125 C 143.632812 14.125 143.632812 14.074219 143.632812 14.074219 C 143.632812 13.972656 143.632812 13.921875 143.683594 13.820312 C 143.683594 13.820312 143.683594 13.820312 143.734375 13.820312 C 150.046875 13.203125 166.625 11.710938 187.308594 11.710938 C 207.992188 11.660156 224.570312 13.097656 230.984375 13.765625 Z M 133.929688 24.144531 L 139.269531 29.28125 L 141.578125 31.488281 C 142.039062 31.953125 142.5 32.363281 142.964844 32.824219 C 143.167969 33.03125 143.425781 33.289062 143.632812 33.492188 L 145.121094 34.929688 L 145.324219 35.136719 C 145.839844 35.597656 146.300781 36.0625 146.8125 36.574219 C 149.890625 39.453125 153.640625 42.226562 157.640625 45.101562 C 158.464844 45.667969 159.234375 46.234375 160.054688 46.796875 C 160.925781 47.414062 161.851562 48.03125 162.722656 48.699219 C 162.828125 48.75 162.878906 48.800781 162.980469 48.902344 C 163.851562 49.519531 164.777344 50.1875 165.648438 50.855469 C 165.75 50.90625 165.804688 50.957031 165.90625 51.0625 C 166.726562 51.679688 167.546875 52.292969 168.371094 52.910156 C 168.472656 52.960938 168.523438 53.066406 168.625 53.117188 C 169.5 53.785156 170.320312 54.453125 171.140625 55.121094 C 171.242188 55.171875 171.292969 55.273438 171.398438 55.324219 C 173.089844 56.710938 174.632812 58.152344 176.015625 59.640625 C 177.402344 61.128906 178.632812 62.671875 179.558594 64.210938 C 145.425781 61.4375 130.285156 40.839844 129.621094 39.914062 L 128.902344 39.09375 C 128.4375 38.320312 128.542969 36.933594 128.953125 35.238281 C 129.363281 33.542969 130.183594 31.542969 131.160156 29.382812 C 132.03125 27.535156 132.957031 25.839844 133.929688 24.144531 Z M 281.078125 334.058594 L 93.640625 334.058594 L 93.640625 322.347656 L 117.042969 322.347656 L 117.042969 310.632812 L 99.59375 310.632812 C 114.839844 289.316406 124.382812 267.6875 128.027344 246.164062 L 246.84375 246.164062 C 251.054688 268.457031 260.394531 289.675781 275.226562 310.632812 L 257.621094 310.632812 L 257.621094 322.347656 L 281.027344 322.347656 L 281.027344 334.058594 Z M 58.535156 322.292969 L 81.9375 322.292969 L 81.9375 339.863281 L 58.535156 339.863281 Z M 128.796875 322.292969 L 175.65625 322.292969 L 175.65625 287.15625 L 128.796875 287.15625 Z M 140.5 298.871094 L 163.902344 298.871094 L 163.902344 310.582031 L 140.5 310.582031 Z M 269.324219 99.554688 L 234.167969 99.554688 L 234.167969 87.84375 L 269.324219 87.84375 Z M 269.324219 99.554688 " fill-opacity="1" fill-rule="nonzero"/><path stroke-linecap="butt" transform="matrix(0.75, 0, 0, 0.75, 127.499996, 210.193522)" fill="none" stroke-linejoin="miter" d="M 0.00000516333 2.002387 L 160.000016 2.002387 " stroke="#000000" stroke-width="4" stroke-opacity="1" stroke-miterlimit="4"/></svg>