<svg xmlns="http://www.w3.org/2000/svg" xmlns:xlink="http://www.w3.org/1999/xlink" width="500" zoomAndPan="magnify" viewBox="0 0 375 374.999991" height="500" preserveAspectRatio="xMidYMid meet" version="1.0"><defs><clipPath id="c644f0af91"><path d="M 0 91 L 375 91 L 375 284.71875 L 0 284.71875 Z M 0 91 " clip-rule="nonzero"/></clipPath></defs><path stroke-linecap="butt" transform="matrix(-0.166473, 0.731291, -0.731291, -0.166473, 122.719823, 139.875519)" fill="none" stroke-linejoin="miter" d="M 0.000344324 1.999139 L 14.123613 1.999721 " stroke="#000000" stroke-width="4" stroke-opacity="1" stroke-miterlimit="4"/><g clip-path="url(#c644f0af91)"><path fill="#000000" d="M 175.34375 147.039062 C 173.996094 145.6875 173.273438 143.882812 173.273438 141.945312 C 173.273438 140.054688 174.039062 138.207031 175.34375 136.855469 C 177.011719 135.140625 179.53125 134.421875 181.871094 134.871094 C 182.324219 134.960938 182.773438 135.097656 183.222656 135.277344 C 183.671875 135.457031 184.078125 135.726562 184.484375 135.953125 C 184.890625 136.222656 185.25 136.492188 185.5625 136.855469 C 186.914062 138.207031 187.636719 140.007812 187.636719 141.945312 C 187.636719 143.839844 186.871094 145.6875 185.5625 147.039062 C 184.214844 148.390625 182.367188 149.15625 180.476562 149.15625 C 178.542969 149.15625 176.695312 148.390625 175.34375 147.039062 Z M 374.730469 235 C 374.730469 238.558594 373.695312 241.9375 371.847656 244.867188 C 373.648438 247.707031 374.730469 251.039062 374.730469 254.644531 L 374.730469 266.089844 C 374.730469 276.140625 366.535156 284.339844 356.496094 284.339844 L 16.207031 284.339844 C 7.15625 284.339844 -0.179688 276.996094 -0.179688 267.9375 L -0.179688 245.589844 C -0.179688 243.246094 0.359375 240.992188 1.261719 238.964844 C 0.316406 236.847656 -0.136719 234.546875 -0.136719 232.203125 C 0.226562 210.710938 3.105469 186.601562 5.445312 170.199219 C 5.492188 169.976562 5.539062 169.75 5.582031 169.523438 C 5.71875 168.578125 5.851562 167.675781 5.988281 166.773438 C 6.03125 166.460938 6.078125 166.144531 6.121094 165.828125 C 6.300781 164.65625 6.484375 163.484375 6.664062 162.3125 C 6.707031 162.132812 6.707031 161.953125 6.753906 161.726562 C 6.933594 160.421875 7.15625 159.160156 7.339844 157.898438 C 7.339844 157.851562 7.339844 157.851562 7.339844 157.808594 C 7.96875 153.886719 8.554688 150.238281 9.09375 146.949219 C 9.183594 146.363281 9.273438 145.777344 9.410156 145.191406 C 10.894531 136.402344 12.066406 130.5 12.289062 129.238281 C 12.335938 129.105469 12.335938 128.96875 12.335938 128.96875 C 12.964844 125.769531 15.667969 123.425781 18.863281 123.199219 C 19.671875 123.15625 38.582031 121.9375 62.261719 135.726562 C 62.933594 136.132812 63.386719 136.449219 63.835938 136.765625 L 64.242188 137.035156 C 64.511719 137.214844 64.78125 137.441406 65.097656 137.621094 C 83.824219 143.523438 107.007812 142.21875 133.703125 133.65625 C 134.875 133.292969 136.089844 132.890625 137.304688 132.484375 C 137.441406 132.4375 137.621094 132.394531 137.753906 132.347656 C 138.566406 132.078125 139.421875 131.761719 140.277344 131.445312 C 141.808594 130.90625 143.382812 130.320312 145.046875 129.691406 C 142.84375 110.582031 154.457031 97.246094 161.660156 92.515625 C 164.226562 90.847656 167.558594 90.9375 169.988281 92.785156 L 194.839844 111.664062 C 194.882812 111.664062 194.882812 111.710938 194.929688 111.710938 C 195.152344 111.890625 195.332031 112.027344 195.511719 112.207031 C 200.238281 115.539062 247.6875 140.324219 303.554688 161.277344 C 314.722656 165.46875 325.75 169.296875 336.285156 172.679688 C 348.84375 176.644531 360.234375 186.332031 367.527344 199.175781 C 369.191406 202.058594 370.542969 205.078125 371.625 208.097656 C 372.839844 211.386719 373.695312 214.722656 374.191406 218.054688 C 374.414062 219.40625 374.550781 220.714844 374.683594 222.066406 C 374.773438 223.148438 374.820312 224.273438 374.820312 225.355469 L 374.820312 235 Z M 16.207031 269.875 L 356.542969 269.875 C 358.613281 269.875 360.324219 268.164062 360.324219 266.089844 L 360.324219 254.644531 C 360.324219 254.058594 360.144531 253.472656 359.917969 252.976562 C 359.289062 251.714844 358.074219 250.859375 356.585938 250.859375 C 356.585938 250.859375 356.585938 250.859375 356.542969 250.859375 L 132.261719 250.859375 C 131.09375 250.859375 129.96875 250.589844 128.929688 250.050781 L 121.457031 246.128906 L 116.6875 243.648438 L 16.207031 243.648438 C 15.847656 243.648438 15.53125 243.785156 15.261719 243.921875 C 14.722656 244.234375 14.316406 244.820312 14.269531 245.453125 C 14.269531 245.496094 14.226562 245.542969 14.226562 245.585938 L 14.226562 267.894531 C 14.226562 268.976562 15.125 269.875 16.207031 269.875 Z M 118.488281 229.183594 C 119.65625 229.183594 120.785156 229.457031 121.820312 229.996094 L 134.0625 236.394531 L 198.167969 236.394531 C 198.4375 235.089844 198.753906 233.78125 199.113281 232.519531 C 153.871094 230.402344 128.210938 213.910156 119.027344 206.65625 C 106.289062 211.703125 94.628906 213.234375 85.128906 213.234375 C 79.726562 213.234375 75.046875 212.738281 71.261719 212.105469 C 72.703125 217.289062 73.648438 223.011719 73.964844 229.183594 Z M 21.203125 162.40625 C 30.34375 160.871094 42.632812 157.359375 49.339844 145.234375 C 48.890625 145.011719 48.4375 144.832031 47.988281 144.605469 C 44.929688 143.164062 42 141.992188 39.300781 141.089844 C 39.03125 141 38.761719 140.910156 38.445312 140.820312 C 37.636719 140.550781 36.824219 140.324219 36.058594 140.097656 C 35.699219 140.007812 35.382812 139.917969 35.023438 139.828125 C 34.304688 139.648438 33.582031 139.46875 32.90625 139.289062 C 32.546875 139.199219 32.234375 139.109375 31.871094 139.0625 C 31.242188 138.925781 30.613281 138.792969 30.027344 138.65625 C 29.667969 138.613281 29.351562 138.523438 28.992188 138.476562 C 28.453125 138.386719 27.910156 138.296875 27.414062 138.207031 C 27.101562 138.160156 26.785156 138.117188 26.515625 138.070312 C 26.066406 138.027344 25.660156 137.9375 25.253906 137.890625 C 25.164062 138.296875 25.074219 138.746094 25.03125 139.199219 C 24.984375 139.558594 24.894531 139.875 24.851562 140.234375 C 24.761719 140.730469 24.667969 141.226562 24.578125 141.765625 C 24.488281 142.261719 24.398438 142.710938 24.308594 143.207031 C 24.21875 143.703125 24.128906 144.199219 24.039062 144.742188 C 23.90625 145.460938 23.769531 146.226562 23.632812 146.949219 C 23.542969 147.355469 23.5 147.714844 23.410156 148.164062 C 23.230469 149.335938 23.003906 150.554688 22.777344 151.859375 C 22.734375 152.21875 22.644531 152.582031 22.597656 152.988281 C 22.417969 153.976562 22.285156 154.96875 22.105469 155.960938 C 22.015625 156.457031 21.921875 156.953125 21.878906 157.449219 C 21.699219 158.4375 21.5625 159.476562 21.382812 160.558594 C 21.292969 161.050781 21.25 161.503906 21.160156 162 C 21.25 162.132812 21.203125 162.269531 21.203125 162.40625 Z M 62.125 151.816406 C 50.960938 172.40625 28.765625 176.011719 18.996094 177.363281 C 18.816406 178.582031 18.683594 179.84375 18.503906 181.105469 C 38.21875 192.867188 49.609375 209.675781 51.230469 229.183594 L 59.46875 229.183594 C 58.523438 212.964844 51.949219 199.175781 39.929688 188.132812 C 37.003906 185.429688 36.78125 180.878906 39.480469 177.949219 C 42.183594 175.023438 46.730469 174.796875 49.65625 177.5 C 54.605469 182.007812 59.875 188.042969 64.242188 195.660156 C 64.824219 195.703125 65.410156 195.839844 65.996094 196.019531 C 67.390625 196.515625 89.269531 204.042969 116.910156 191.738281 C 117.183594 191.605469 117.453125 191.515625 117.722656 191.378906 C 129.203125 186.105469 141.582031 177.410156 153.917969 163.394531 C 153.152344 162.898438 152.386719 162.40625 151.621094 161.820312 C 146.445312 157.761719 140.1875 152.941406 134.378906 148.570312 C 107.097656 156.773438 82.789062 157.898438 62.125 151.816406 Z M 301.9375 176.101562 L 284.332031 187.863281 C 280.191406 190.65625 275.464844 192.324219 270.648438 192.910156 C 271.144531 195.660156 271.144531 198.273438 271.144531 200.570312 L 271.144531 201.023438 C 271.144531 201.832031 271.503906 202.644531 272.132812 203.230469 C 272.539062 203.636719 273.257812 204.175781 274.339844 204.085938 C 274.789062 204.085938 275.238281 204.085938 275.691406 204.175781 C 291.3125 206.746094 332.1875 210.484375 351.183594 200.75 C 345.917969 193.902344 339.03125 188.71875 331.871094 186.421875 C 322.195312 183.402344 312.109375 179.886719 301.9375 176.101562 Z M 360.324219 225.355469 C 360.324219 223.957031 360.1875 222.5625 360.007812 221.164062 C 359.964844 220.847656 359.917969 220.535156 359.875 220.261719 C 359.648438 218.867188 359.378906 217.515625 358.972656 216.117188 C 358.929688 215.890625 358.839844 215.621094 358.75 215.398438 C 358.570312 214.765625 358.386719 214.136719 358.164062 213.460938 C 358.117188 213.460938 358.117188 213.460938 358.074219 213.503906 C 331.691406 227.066406 282.308594 219.949219 273.890625 218.597656 C 269.433594 218.507812 265.246094 216.792969 262.050781 213.683594 C 258.671875 210.394531 256.738281 205.84375 256.691406 201.15625 L 256.691406 200.617188 C 256.691406 198.679688 256.691406 196.875 256.421875 195.390625 L 255.566406 191.242188 L 255.523438 191.109375 L 253.453125 190.433594 L 249.894531 189.125 L 243.996094 186.917969 C 237.46875 192.144531 219.644531 209.808594 212.933594 236.394531 L 356.542969 236.394531 C 356.585938 236.394531 356.585938 236.394531 356.632812 236.394531 L 360.097656 236.394531 C 360.097656 236.351562 360.097656 236.304688 360.097656 236.261719 C 360.234375 235.898438 360.324219 235.449219 360.324219 234.953125 Z M 151.800781 142.578125 C 151.484375 142.710938 151.171875 142.847656 150.898438 142.9375 C 154.277344 145.550781 157.609375 148.121094 160.578125 150.417969 C 162.605469 151.996094 164.855469 153.167969 167.195312 153.976562 C 167.285156 154.023438 167.378906 154.023438 167.46875 154.066406 C 171.382812 155.328125 175.617188 155.464844 179.710938 154.429688 C 182.726562 153.664062 185.746094 153.257812 188.804688 153.257812 C 193.171875 153.257812 197.492188 154.023438 201.636719 155.601562 L 258.3125 176.824219 L 263.445312 178.445312 C 267.855469 179.300781 272.539062 178.402344 276.320312 175.878906 L 285.371094 169.792969 C 285.144531 169.703125 284.917969 169.613281 284.695312 169.523438 C 283.839844 169.164062 282.984375 168.847656 282.128906 168.488281 C 282.039062 168.984375 281.902344 169.480469 281.722656 169.976562 C 280.597656 172.769531 277.894531 174.480469 275.058594 174.480469 C 274.160156 174.480469 273.257812 174.300781 272.359375 173.941406 C 242.601562 161.820312 216.988281 148.660156 200.691406 139.785156 C 197.179688 137.890625 195.917969 133.476562 197.808594 130.003906 C 197.449219 129.78125 197.089844 129.597656 196.730469 129.417969 C 196.503906 129.285156 196.277344 129.195312 196.054688 129.058594 C 194.882812 128.429688 193.800781 127.796875 192.8125 127.210938 C 192.675781 127.121094 192.542969 127.03125 192.40625 126.984375 C 191.371094 126.355469 190.382812 125.769531 189.527344 125.230469 C 189.527344 125.230469 189.527344 125.230469 189.480469 125.230469 C 189.390625 125.273438 189.347656 125.320312 189.253906 125.320312 C 188.761719 125.542969 188.265625 125.769531 187.679688 126.085938 C 187.410156 126.21875 187.140625 126.355469 186.871094 126.492188 C 186.464844 126.671875 186.058594 126.894531 185.652344 127.074219 C 185.339844 127.257812 184.980469 127.390625 184.664062 127.570312 C 184.035156 127.886719 183.402344 128.203125 182.773438 128.519531 C 176.066406 131.851562 166.882812 136.402344 155.941406 140.910156 C 154.5 141.496094 153.105469 142.035156 151.800781 142.578125 Z M 151.753906 186.015625 C 164.722656 190.253906 189.707031 196.066406 219.644531 191.46875 C 222.792969 187.503906 225.945312 184.078125 228.917969 181.238281 L 196.546875 169.117188 C 192.273438 167.496094 187.679688 167.269531 183.269531 168.398438 C 178.226562 169.703125 173.050781 169.839844 168.097656 169.027344 C 162.648438 175.5625 157.203125 181.238281 151.753906 186.015625 Z M 133.703125 199.308594 C 144.957031 206.472656 167.917969 217.289062 203.886719 218.191406 C 205.507812 214.316406 207.261719 210.621094 209.199219 207.152344 C 205.058594 207.464844 201.050781 207.601562 197.132812 207.601562 C 167.242188 207.601562 145.273438 199.398438 138.25 196.425781 C 136.71875 197.460938 135.234375 198.410156 133.703125 199.308594 Z M 16.207031 229.183594 L 36.78125 229.183594 C 35.160156 214.40625 26.246094 204.042969 16.65625 197.101562 C 15.578125 207.554688 14.675781 218.730469 14.40625 229.410156 C 14.992188 229.277344 15.578125 229.183594 16.207031 229.183594 Z M 165.890625 107.878906 C 163.011719 110.988281 159.453125 116.351562 159.136719 123.832031 C 159.453125 123.695312 159.769531 123.515625 160.128906 123.382812 C 160.714844 123.109375 161.300781 122.839844 161.886719 122.570312 C 162.335938 122.390625 162.785156 122.164062 163.191406 121.984375 C 163.59375 121.804688 164 121.625 164.40625 121.398438 C 165.710938 120.765625 167.015625 120.183594 168.230469 119.597656 C 168.546875 119.414062 168.863281 119.28125 169.222656 119.101562 C 170.167969 118.648438 171.113281 118.199219 172.015625 117.75 C 172.238281 117.660156 172.464844 117.523438 172.644531 117.433594 C 172.824219 117.34375 173.050781 117.253906 173.230469 117.164062 C 173.230469 117.164062 173.273438 117.164062 173.273438 117.164062 C 174.085938 116.757812 174.894531 116.351562 175.660156 115.992188 C 175.839844 115.902344 176.019531 115.8125 176.199219 115.71875 Z M 195.691406 112.519531 C 195.828125 112.65625 195.917969 112.835938 196.054688 112.972656 C 196.324219 113.289062 196.59375 113.558594 196.773438 113.917969 C 196.324219 113.152344 195.875 112.65625 195.558594 112.386719 C 195.648438 112.429688 195.648438 112.476562 195.691406 112.519531 Z M 195.691406 112.519531 " fill-opacity="1" fill-rule="nonzero"/></g></svg>