<svg xmlns="http://www.w3.org/2000/svg" xmlns:xlink="http://www.w3.org/1999/xlink" width="500" zoomAndPan="magnify" viewBox="0 0 375 374.999991" height="500" preserveAspectRatio="xMidYMid meet" version="1.0"><defs><g/><clipPath id="988d125976"><rect x="0" width="78" y="0" height="108"/></clipPath></defs><path fill="#7b44fd" d="M 193.273438 35.773438 C 193.050781 36.148438 191.476562 39.976562 189.75 44.25 C 181.425781 65.324219 159.824219 101.476562 133.5 138.375 C 104.25 179.324219 98.25 190.425781 94.875 209.25 C 94.199219 213.148438 93.375 218.023438 93 220.125 C 92.25 224.023438 92.550781 242.625 93.300781 246.148438 C 93.601562 247.351562 93.898438 249.148438 94.050781 250.273438 C 96.824219 269.773438 109.875 293.476562 125.476562 307.351562 C 132.675781 313.726562 143.699219 321.226562 151.050781 324.675781 C 178.199219 337.574219 211.050781 337.351562 237.375 324.226562 C 259.949219 312.898438 278.925781 292.648438 287.476562 270.75 C 296.398438 248.023438 297 220.949219 289.125 196.875 C 285.074219 184.351562 274.800781 167.25 252.976562 136.875 C 225.976562 99.148438 206.550781 66.601562 198 44.625 C 194.625 36 193.949219 34.726562 193.273438 35.773438 Z M 193.273438 35.773438 " fill-opacity="1" fill-rule="nonzero"/><g transform="matrix(1, 0, 0, 1, 156, 171)"><g clip-path="url(#988d125976)"><g fill="#ffffff" fill-opacity="1"><g transform="translate(0.991474, 83.099439)"><g><path d="M 6.25 -62.515625 L 35.8125 -62.515625 C 42.65625 -62.515625 48.726562 -61.234375 54.03125 -58.671875 C 59.332031 -56.117188 63.441406 -52.488281 66.359375 -47.78125 C 69.273438 -43.070312 70.734375 -37.566406 70.734375 -31.265625 C 70.734375 -24.953125 69.273438 -19.441406 66.359375 -14.734375 C 63.441406 -10.035156 59.332031 -6.40625 54.03125 -3.84375 C 48.726562 -1.28125 42.65625 0 35.8125 0 L 6.25 0 Z M 35.09375 -14.109375 C 40.457031 -14.109375 44.757812 -15.625 48 -18.65625 C 51.25 -21.695312 52.875 -25.898438 52.875 -31.265625 C 52.875 -36.617188 51.25 -40.8125 48 -43.84375 C 44.757812 -46.882812 40.457031 -48.40625 35.09375 -48.40625 L 23.9375 -48.40625 L 23.9375 -14.109375 Z M 35.09375 -14.109375 "/></g></g></g></g></g></svg>